/* XPM */
static char *player[] = {
/* columns rows colors chars-per-pixel */
"64 64 15 1 ",
"  c #010B1D",
". c #502C18",
"X c #2D7A29",
"o c #764531",
"O c #86442D",
"+ c #8F4C32",
"@ c #AD6A35",
"# c #3CA13A",
"$ c #D6822D",
"% c #FC9838",
"& c #E69873",
"* c #F9F577",
"= c #F8AF84",
"- c #FFF2D5",
"; c #EFD1A6",
/* pixels */
";;;;;;;;;;;;;;;;;;;;############################;;;;;;;;;;;;;;;;",
";;;;;;;;;;;;;;;;;;;;############################;;;;;;;;;;;;;;;;",
";;;;;;;;;;;;;;;;;;;;############################;;;;;;;;;;;;;;;;",
";;;;;;;;;;;;;;;;;;;;############################;;;;;;;;;;;;;;;;",
";;;;;;;;;;;;;;;;####************************XXXX;;;;;;;;;;;;;;;;",
";;;;;;;;;;;;;;;;####************************XXXX;;;;;;;;;;;;;;;;",
";;;;;;;;;;;;;;;;####************************XXXX;;;;;;;;;;;;;;;;",
";;;;;;;;;;;;;;;;####************************XXXX;;;;;;;;;;;;;;;;",
";;;;;;;;;;;;;;;;****@@@@@@@@@@@@@@@@@@@@@@@@****;;;;;;;;;;;;;;;;",
";;;;;;;;;;;;;;;;****@@@@@@@@@@@@@@@@@@@@@@@@****;;;;;;;;;;;;;;;;",
";;;;;;;;;;;;;;;;****@@@@@@@@@@@@@@@@@@@@@@@@****;;;;;;;;;;;;;;;;",
";;;;;;;;;;;;;;;;****@@@@@@@@@@@@@@@@@@@@@@@@****;;;;;;;;;;;;;;;;",
";;;;;;;;====;;;;@@@@$$$$$$$$$$$$@@@@@@@@$$$$@@@@;;;;====;;;;;;;;",
";;;;;;;;====;;;;@@@@$$$$$$$$$$$$@@@@@@@@$$$$@@@@;;;;====;;;;;;;;",
";;;;;;;;====;;;;@@@@$$$$$$$$$$$$@@@@@@@@$$$$@@@@;;;;====;;;;;;;;",
";;;;;;;;====;;;;@@@@$$$$$$$$$$$$@@@@@@@@$$$$@@@@;;;;====;;;;;;;;",
";;;;;;;;========$$$$$$$$----&&&&&&&&----$$$$$$$$========;;;;;;;;",
";;;;;;;;========$$$$$$$$----&&&&&&&&----$$$$$$$$========;;;;;;;;",
";;;;;;;;========$$$$$$$$----&&&&&&&&----$$$$$$$$========;;;;;;;;",
";;;;;;;;========$$$$$$$$----&&&&&&&&----$$$$$$$$========;;;;;;;;",
";;;;;;;;&&&&====$$$$====    ========    ====$$$$====&&&&;;;;;;;;",
";;;;;;;;&&&&====$$$$====    ========    ====$$$$====&&&&;;;;;;;;",
";;;;;;;;&&&&====$$$$====    ========    ====$$$$====&&&&;;;;;;;;",
";;;;;;;;&&&&====$$$$====    ========    ====$$$$====&&&&;;;;;;;;",
";;;;;;;;;;;;&&&&@@@@========================@@@@&&&&....;;;;;;;;",
";;;;;;;;;;;;&&&&@@@@========================@@@@&&&&....;;;;;;;;",
";;;;;;;;;;;;&&&&@@@@========================@@@@&&&&....;;;;;;;;",
";;;;;;;;;;;;&&&&@@@@========================@@@@&&&&....;;;;;;;;",
";;;;;;;;;;;;####@@@@========        ====&&&&@@@@XXXXOOOO;;;;;;;;",
";;;;;;;;;;;;####@@@@========        ====&&&&@@@@XXXXOOOO;;;;;;;;",
";;;;;;;;;;;;####@@@@========        ====&&&&@@@@XXXXOOOO;;;;;;;;",
";;;;;;;;;;;;####@@@@========        ====&&&&@@@@XXXXOOOO;;;;;;;;",
";;;;++++++++++++++++oooo&&&&&&&&&&&&&&&&XXXX####....OOOOOOOO;;;;",
";;;;++++++++++++++++oooo&&&&&&&&&&&&&&&&XXXX####....OOOOOOOO;;;;",
";;;;++++++++++++++++oooo&&&&&&&&&&&&&&&&XXXX####....OOOOOOOO;;;;",
";;;;++++++++++++++++oooo&&&&&&&&&&&&&&&&XXXX####....OOOOOOOO;;;;",
"++++++++%%%%%%%%++++++++ooooXXXXXXXXXXXX########&&&&OOOO....;;;;",
"++++++++%%%%%%%%++++++++ooooXXXXXXXXXXXX########&&&&OOOO....;;;;",
"++++++++%%%%%%%%++++++++ooooXXXXXXXXXXXX########&&&&OOOO....;;;;",
"++++++++%%%%%%%%++++++++ooooXXXXXXXXXXXX########&&&&OOOO....;;;;",
"++++++++++++++++++++++++oooo....OOOO########========&&&&....;;;;",
"++++++++++++++++++++++++oooo....OOOO########========&&&&....;;;;",
"++++++++++++++++++++++++oooo....OOOO########========&&&&....;;;;",
"++++++++++++++++++++++++oooo....OOOO########========&&&&....;;;;",
"++++%%%%++++++++%%%%++++ooooXXXXOOOOOOOOOOOOOOOO========&&&&;;;;",
"++++%%%%++++++++%%%%++++ooooXXXXOOOOOOOOOOOOOOOO========&&&&;;;;",
"++++%%%%++++++++%%%%++++ooooXXXXOOOOOOOOOOOOOOOO========&&&&;;;;",
"++++%%%%++++++++%%%%++++ooooXXXXOOOOOOOOOOOOOOOO========&&&&;;;;",
"++++++++%%%%%%%%++++++++oooo........XXXXXXXXXXXXXXXX====;;;;;;;;",
"++++++++%%%%%%%%++++++++oooo........XXXXXXXXXXXXXXXX====;;;;;;;;",
"++++++++%%%%%%%%++++++++oooo........XXXXXXXXXXXXXXXX====;;;;;;;;",
"++++++++%%%%%%%%++++++++oooo........XXXXXXXXXXXXXXXX====;;;;;;;;",
"++++++++++++++++++++ooooooooXXXXXXXXXXXX########;;;;;;;;;;;;;;;;",
"++++++++++++++++++++ooooooooXXXXXXXXXXXX########;;;;;;;;;;;;;;;;",
"++++++++++++++++++++ooooooooXXXXXXXXXXXX########;;;;;;;;;;;;;;;;",
"++++++++++++++++++++ooooooooXXXXXXXXXXXX########;;;;;;;;;;;;;;;;",
";;;;oooooooooooooooooooo....;;;;;;;;....OOOOOOOO;;;;;;;;;;;;;;;;",
";;;;oooooooooooooooooooo....;;;;;;;;....OOOOOOOO;;;;;;;;;;;;;;;;",
";;;;oooooooooooooooooooo....;;;;;;;;....OOOOOOOO;;;;;;;;;;;;;;;;",
";;;;oooooooooooooooooooo....;;;;;;;;....OOOOOOOO;;;;;;;;;;;;;;;;",
";;;;;;;;;;;;;;;;............;;;;;;;;;;;;;;;;;;;;;;;;;;;;;;;;;;;;",
";;;;;;;;;;;;;;;;............;;;;;;;;;;;;;;;;;;;;;;;;;;;;;;;;;;;;",
";;;;;;;;;;;;;;;;............;;;;;;;;;;;;;;;;;;;;;;;;;;;;;;;;;;;;",
";;;;;;;;;;;;;;;;............;;;;;;;;;;;;;;;;;;;;;;;;;;;;;;;;;;;;"};
