/* XPM */
static char * zelda_red_rock_xpm[] = {
/* columns rows colors chars-per-pixel */
"128 128 28 1",
" 	c #4E2700",
".	c #622700",
"+	c #623B00",
"@	c #3B2700",
"#	c #3B1400",
"$	c #4E3B00",
"%	c #623B14",
"&	c #622714",
"*	c #4E3B14",
"=	c #4E2714",
"-	c #4E1400",
";	c #3B2714",
">	c #3B1414",
",	c #762714",
"'	c #272700",
")	c #763B14",
"!	c #763B00",
"~	c #762700",
"{	c #4E1414",
"]	c #271400",
"^	c #272714",
"/	c #894E00",
"(	c #764E00",
"_	c #893B14",
":	c #764E14",
"<	c #271414",
"[	c #894E14",
"}	c #893B00",
" .+.+. .  .+.+.+.+.+.+.+.+.+.+.+.+.+.+++.+       @#@#@#@@@@ @@@@@ @@ @@ @@ @  @ @  @@#@#   .    +.$. $ .    $   +  + .          ",
"+.%.%+%$&+*.%.%+%.%.%.%.%.*.*.*.%.*.% &.*.=$&$.=  =@#@@#  -= @-@ #  #  # @-@ @  =  =@#@@ =+ *.$& .=+ & =$=$= =$= =+=.*.+&$.*  & ",
"+&+.+.++.+.+.+..++.++.++.+.+.$.+ + .$.$  +.+ .*.    = ; ; @ @>@=@=@#=@; ; @=  =@ @   >@#@ + . . + $. + .    .   + .$ +    +  %$.",
".++.%+,+%+&+%.%+&.%.%.%.%+&+=.* &$&$&. &.$&+=+.++ %    #  @  @ #@#  @ -@ @-@ @    = @@@>@@= *.* =+= & $=$  =$ =  % .= $&$= =. .+",
"+&$.+.+.+.+ ++.+++.+.+.+. $ . .+ .+.$ + +&+.+.%.=+.+ =   ;  @@ @  @; @ @ =@ >  ; @  @#@ @# @       $ . . =$   $ + .$. . + + +%+&",
"++.% %.%+% %.&+=.%.%.%+&+& +=+ &$ &$.& % +.+.%.++ +=.$ @  #=# ; #=@- @=@  @  @  =  =@>@ >@@@ =  $=   =$=     =  &.*. *.* .=$. .+",
"+&$.+.++++.+++.++.+.+.+.$ +=+.$.+=+ +  .+&$&+ +& %.+ & =  @ @   @  @  # =# @ ; @ @ @##  @@-;@  %   =     = =   + $.$.  .$&$.%+%.",
".+.*.*.%.%+&+&+%.%.*.*.%+&+ .$.% + +&$.*.+.+.%.++ +=+.+.  =@-=@=  ; =@     =-@   =@#'@ =#@@#@     $  $   $    = += .=$.*.$.$. .+",
"+&+.+.+.++.+.+.+.+ +.+.+.+ %.%.+.%..+ &++%.%+.+&.%.+ * *   @       @ @=@ ; @@ ;#@#@;#  @@;  @=  % & = = =   *  + .$=+ . +&+&+%+ ",
".+.+=+=+).*.*.%.%+&+%.% %.%.+.+&+.%.%+++..+$.%.+++.% +.+  ; @=  = =       @  #@@ @ #@@= @# > @    $       =    & * + .$&+.++.+&+",
"+% +.+.+++.+.+.+.+ +.+.+.+.$&$.+ +$+.+&+&+&+.++&.=+ .% %.   @       =  @;- ;@  =   @#  @#@ @ = = . =  $= +   % $.+.=+=+.+&+%++.+",
"+.%.%$&+&+%+&+%.%.%.% %+&+%.+&+&+%.%.%+.+++.%+&+++ % $.+=+ =@ =  ;    ;  @@-@=@@@ @>@;  @;-@  @  *.$ =     = .$. % +  +&++.+.+%+",
"++.+.+.++.+.+.++.+++.+.+.+.+.++++.+!+.+%+&+.+.++& . +&$.$.    @    =   @ @ @  # =  @#@ >@# =@    .     * =  +=.*.$.% +&++&+)+,+.",
"+&+%+&+%.%+&+%+&+%.&+&+&+&+&$&+&!)+%.%+~++&+%+&+.++=+ +.=+=  ; = =   =  @{ ;       #@#@#@@    ; %  % *  .  $.$+ .%.$&+.+.++.++.+",
".+.+.+.++.+.+.+.+.$+ +++.+.+.++!++~+!.+%+~++.++.*.=+.% *. .$    @      = @  @;@@@;@#;@#@#= @=    .$.   $=$&+&+&++.+.+ %.%+&!%.%.",
"+&+%.%+&+%+&+%.%+&+&+&+&+&+=+%!)!)+)+)+~+%+&+%.% ++ + +. $  =  =$ +*.%     # #  -  @#@#;@@    =+ =.=  =   +.+.++&+%+&++.+.++.+.+",
"++.++.++.+.+.+.$.+.+++ ++ +.+!!++.!+!+)++~++.++.+&.% %.$&.=+   ..%.+ + = ;@@;@ ;@@#;@@@#@ =@  $  + $.$. +&+&+%+.++.++&+&+&+&+&+&",
"+.%+&+%+%!%+%.%.%.%.%.%.%.%+)!)!)+)+&!+,+%+%.%.%.++.+.*. $.  =+*.+.%.%    @-@ #@  @# =#@#@  = .*. & .= = +.++.+%+&+%.+.+.++.+.++",
"+%!.++.!+.+.+.++.++.++++++!!!)!+!++!+!++!.!.++.++&+=+ +.*. % +.++&$.$.$  @=@ #@ >@#   @>@=  $.*. $.$.$.++&+&+&!.!+!.+&+&+& %+%.+",
"!.++.%+&+%+%+&+&+%.%+&+&!&+)!+)!%!%~%!%~%+%+%.%+&++.+ % +=+ . .%.++%.+& = # @ =  @@ =  #@   =+ +&+=+=.+=.+.+.+++%.%+%.++.+++.+&+",
"+%~%++.!+.+.+.+.+.+.+.+.++!!%!!!+)+!+!.++!.+.+.++.* =+.+.+ &+%+.+%. += $ @  ;   =#=   =@# ; +.%.+.+.+.*.+%.%+&+.+!+.+.%.%.&+.++.",
"+.++%~+%!&+&+%.%+&+%.%.%+&+)!!)+).!+)+%!%.%+%.%+&++ + .%.%.++.+%.$.% +.   =@    @    $ #@   &$.%.+%.%.+.+ ++.+%+&+%!%+.+++++&$&+",
"+&+.++%.++.++.+$.+.+ $. ++!!!%!!+!%!.!.+.++.++.+. & % % +.+&+&+.$&$.+=  =@-  = =  = =  ;] % +.+.+&+.++&+&+&++.+.+!.++.)+&+&+.+.+",
".+++&!.!+.%+&+%.%.%.% % &+)+)!!%!%!+)+%!%~%!&+&+%.+ .$.$&+%.+.+= +=      @ @       $    @  $.%+&+.+ %.+.+ +%.%.%+%+%~%++!+.+&+&+",
"+&+&++%.%.+.+.+ +.$. . + !!)!!)!+!%++.!.+++++!+.$ =+ =. +.+.% +     = =@ #; = $=$ =  =  ;  &$.+.+&+.+&$&+&.$+++.!+!+++~%.%.$.$+.",
"++++.+.++.+&+%.%+=+&$.*.+)!!)+!!)+!+,+%+%!%!&+&+&$.  + +=$&++.=  =  @ @ @@        $  $  @@+ .%.%$.+=+.+ + $..%.%+%.%!&++++.+&+&+",
".%.%+&+&+&$.+.+.+.$. $.+%!+)!!)+!+,+++.+~+!++.++. =$& $ .+.+= $   $= @ =  =@ = = = =+= *  = +.+..*.+ % .= .=+.+.+!++.+!&!&+ +++.",
"++.+.++.+.+%.+%+&+&+% &+!)!!+)!!%!+)+.%!%!%!&+%.%$ . $& % %.+.=  = . =  =@   @         . @ $.%.%. +=.$&$ $ $.$&+&+,+)+&+++..=+&+",
".%.%.%.%.*.++& +.$.$.+++)!!)!!!%!+.+.%+.!+~+++!+. =$. + .$.$=     + +     =  =   =$  % +=  &$.$ $   $.  &.*.=.+.++++.+!+&+=++.+.",
"+.+.+.+.++.%.++.$&+=.+&!!%!+!)+!~%!%+.+%!+%!%.%.%  . %  *.*.$.$ = &+&+ =       =   =       $.+=+& % .=$ $ . +$.+%.).)+%.+.+ &+&+",
".%+&+%.% .*.$& % + ++&+!)!!)!!)+++.++%!.+%~+.!++. * $ .+ . .= . $.+.+ .  = =     $   =+= =+.=+ . $  + .=. $& &+&+++++.!+%.$.+.+.",
"+.+.+.+.%+.$.$.$.=+& +)!!!)+!%!+!%+&+.+%!++++%+%+  .=.$= $&$ .* & +&+&$=+  $  =  = *     + .+ .*. .=.=  +=.$.$.+.+%~%+&+.+&+=+&+",
".%.%.%.+. %.%.+=+.$.$.!%!+!)+!%!&+.++)!+~%.).+~+.=+ +. +. $. $ .++%.$ .   =  =        =  &+*.*.$ &$ $.$. .$.%.%.+%~++.!%+. $.++.",
"+ + +.$.%+.  + ..$&. %!!!)!!%!++.++&!.+)+!+++&+&$. .$&$&$=.* = $&+.$. .$&$.$.$  @=@ =   $ +. + .$. . *. *.% .+.%.++.+%+.%.*.%.&+",
".% +=+&$. %+&+&+ .$  +)!)!!)!+).%.+++)!+.%.&++.+.* =.$. +.$   ..$.*.=$= .$& %  =      = &+&+% % = += .$.+ .+%.+.+%~%..+.$. + +$.",
"+ ..+. .%+..+.+.$&+ =+!!+)+!%!+++*+&!++)+.++&.+&$. .*.+&$.&   &$&$.+. $.$  +    @= @=      + + .$. .$ .*.$&  ++% .+++.*.=+ .%.%.",
".*.*.$.$..*+=+=+   = +)!)!!!+!&....++,!+!%.+.+&+.$.$.$=+.$  = +.+& += .*.=+ =$ =     @  *  =.+=+= * .=+ . + %.%.+%.& +. + &$.+.$",
"..$.% %.%+.+.+ =+=$  )+!!+)!%.++$&+%+!+%..+.% +.% &$&+.+ .= $.+%.$&+ +   $       @ ;  = .@@.$ .$. .  + .*.=+.+.+ .+.+=$.=$ .+.%.",
"$&+ .$.$.+%  =.      !)!%!++.%.&+ +!!%!.+*+=+.%+ + .$.*.%   =++.++.+=.*. & % =$ =    @  = @=.* . % %  &$. + %.% %+&+. .$ .*.%.$.",
".$.% +& % +=+ $.$=  %+!!!%!%++$+ &!%.!+.%.+.+.+.+.=$&+    @  +&+%.%+.$. $         =@  ;  @@   .*  .  .$   & + +  +.+%+*.= .$.% .",
".% +.* + + . .=    =+!)++!+..&.&+++!)+&+.+&+&+&+=$.+ +=$ =  =++.++.% = %   =  =$    ; @ @=#@ + . $=+=+ &+ $.=+ &+=+ +..$ +=+.$.*",
"+ +=+.$.% % % $.* @ %+!%!%~%++++ .).+!+ % + ++.+.%  %. .  @  +~%+&+$.$   = $    = = @ @ @@#@= =$= $.  +   &$ .+  +=.=+%+& +.$&$.",
"...$.%.+ +   .      !!%!.++.=.=.+%!+)+&+..%.%.%.$.$& +=$=  =.%++.++& . .   = .=     @ >@#@]@    .. *.* .%.$.&$&+. +$.+..$.*.&$. ",
" %$&.+&+&+&$.* = =@ %!!+%.%.+++*.!%!+++.%$.+.+.+.*. +     @ $.+&+%.+ * * =   $      =@@#@#;#@=  $=+ . .$ $&.$.$.=+.& .%+&$.+$. .",
". .$.$.$.  . .      !)+!.++ % ..+%!+&+.$..*.%.%+=+ %  &  =   %!+.++& .     = = $= =@##@>@@#]  .*. $.* % &.$+&..$.+ ++=+  .*. % *",
" %+=+=+=+*.* *  = @+)!.+%.%.+ +=+!%!+.*.% + +.+.+.    $   @= ..%+&+ +   =         @ @@@@@#'# *  .$& +  + $&+ +$&+=+= + +% +=+. .",
"   . . .   .     @=.++%.+.+ %.%.!++.%.+ $&+&+%.*.$= =  = @  .%+!++.% = .$ % +& =   =@-@#;@#^  .$&.$. += + +.%.%. + .+=.. +.+ =$.",
" %.$ *+ *.$ %  =@ @+!%.+.%.%.$.+%!&+.+ & .$ +.+.+.       @ = .+!.%+  .$ & .   +  =  @ ; #@##  % .$.$&  +=.&+.+.+&+ % +.*+=+=+.  ",
" $ &+. + .=.     @ &+.+&+.$.+&+.+.+.*.$.+%.% % *.=   = @=#  $)+%+. &$ &+++% +=    @@#@-@ ;#@ +.$&. &$.$ .$+=+&++.$& + +..+ + % +",
".. $.=+ & $ + =  ; +!%++.%.% + +&$&$. .% .+.+ +.+  @ @   @ = +. .  +&+++&      =  = @=@@ @#@=.=+.$$. $ &$&$.+.+.%.++..=+ *.%. . ",
" *. +. + .=.=    @ &+.+&++ +.%.% ..$&$.$.%.% .&$ & ; @=@ #@ .=$.%+)+++&.$ = =  @ @@#@#@=@@#@ $. *.&$.=+ .$.% %.%++&$&+. % + +=$.",
"$. *.$& *.$ +   =#@.+%.+.+&+=+.+ + + .=+&+ +.+$. $  @ # @@=  +!)+!++&.+     @ @ ;-@@=@ # @>@$& $.+ % $. $&+ +.++.+.++.*.+. % +. ",
" .$. + .   &  =$ @@&+.+%.%.+ .*.=$& $.$.$.% % &+=. =@#@;#@@.%!)!!%.+ $= =   @=@ @@ #@ @ @#@# $.=+ + .% %.+.%.*+&+=+%.+.+=$.+.=+=",
"+ &$= % $&$ $    ;@.+)++.+.+=+ + .$ .*.$&+ +.+.+.$ #@;#@#@#+!!!)++&+=.    @=@@@ # ; @#=#@;#@.&$ .*.% + .$ %.++.++.+.%.%.+& % + .",
" $ . + . $ = =@  @ %+.+&+=+ +.% +&.% +.% +&$&+%+&+ @# @#;#;!)/!!+.+ .$ =  @@-@>@@ # ;@@@ @] * .$ .  + &$&+++&+%.%.*.$.$ + +  . $",
"& &$. = +& +    =@ .+%.+ + +&$.*.$$.+=+ +.$.++.++%.;@@#@@@+!!!)!%+&+ &    =@@@@ #=@ @# #;#@@.$ &$=+ =+  +.&++.++.+.$.$&+&$&$&$= ",
" +  % +  $. =$ =  =+!+.%.%.=+ .+ &+=+.$&+=+%.%++~+ ##;#@#&!)()!+..+.*   = @#=#@#@ # #@@@ #;  .  .$ +  .= ++.%+&+%+&+&++.+.+  . +",
".  .  . % &$   @  ++%.% $.$+ .$& + .$&.$.++.++!%+% @#@@> !(!!!!+%+&+ .* @  @@@@=@ @=@@=#@@] % * % .= % + .&+++++++ ++.%+&+& .*  ",
" % *.$*. $ .= =  &+~++.+&$& +=.$.=+.$.$&$&+%+,+.+. ;@#@@+_!)!)!%..$.$   = @-@-@#@#@#@#@@;##@ .   + +. .=$++&+,+&!&+%.+.+$.$. . %",
"$ + . .$ &+ $    .%+%.%+ +.% +  $. =.=+.+.++.++&+% #@#@&/!:!!)!$.%.%.=    @=@@;@@@=@@=@ #@'  $% + =  %$. =.+++!+++.++=+%.*.* *. ",
".= +=$.=+  %  ;  $..++. % +  =.=.$+.$.$&$&+&+.%.+.$#@<+!!)!!)!+&$.$.$   ;@-@# # >@#@-@#@@># =. +=.$.%.+&$.+&+&+&+&+%.+.+.+ . . $",
" $. +=.$ .$     =.=+=.%.$.+=+ + +=.*.*.$.+++%.+.+% ;].![!!)!+)+..$.% = @- @ ;@@@@@ @@#@> @] $ +  .=.+.+.+&++.+.!++.+&++%+&+*.$=.",
".$=$ .$=.*. % @ $++.+ + %.*. . +=+ +.+.%.%..++%+.+ # :}!)(!!)!+*.% .  @ @ > #@-;-@#;#@@#@@#;.= $&$.$&$=.$.+&+)+&+ %+.+&+.$.  .$ ",
"*. .%  + .$   @ &.& $&$&+ +.%$% .$. %.*.+.+.%.+&+% @+})/!!)!!+. + +$= @ ; @@@@@@@#@#@;#@#;#@+ + . +.$..$&+&++.++& .+&++++.%+ % .",
" .$  += +=.*.=@@+$+.%.+ +&+.+. .*.*.+.$.%+&++.++..@>!:}!)!()!%+&$&.  @=@-@# >#@-;@@@-@@ @#@@.& &$+=. % +++$.%+..$+%+ +,+=+  & $=",
".$=.*. +  +   #@&.*.$.$&+.+.%.=+ ..+&+&+.$.+.*.%+=#@!}!)!})!!+.$.+  = -@@ @@  =  @-; @-;#@]= $+ . .* .+ &+&+..%$& .+&+.+. &+ + .",
" .$. $.=$.=+  @@ +.+=  .$&+% + .*.$ +  .= %.%++.+@]+)()(!)(!)+&$= = @@@@> =       @ @-@ @#@# .= $= .$= .$.+.*+..$.%+ +=+ + + =.$",
" += += + .$  =#;.+&   .*.+. + &$. +&.+=+ + +.+ =#'#%}!!)!!!)++.   @ @@= .  + = @=@=# @=#@;#@= +  +   .$= .=$. % %.+.%.$&+=+& +  ",
"  +  + =+=.$& '#  @@ =+. % +&+ +&$.$ =+ %.+&$ @@#@#!:!!!)()!.=  =   =.++=  =@ @ @-@ ; @ @#@@  = =  =    +=+.+ ++.+&+ +.$.. + =+ ",
" % % &$.  +   #@;@#=+..$. +. +&$.*.=+.+.+&  @>#@;@ )!!)!!!+.$+&++.%+.+=    @ @   @ @ -@-@ >@@ +    $ = =.$. &.%.%++.+=+& +=.$. .",
" .  +  +=+ =+ ]##@#@#=$&+& % + +.+.++&$  @@@#   #@+!)!+)+%!%!!++&+ .*    ;  @=#; @=# @=@ @@-=  =  =  $    =$+++!.+&+.+ ++&$ &$=$",
".* +  %   +   >'@#;  +. .$.$.&+=+&+%.  =@ #; @ @@ )!!!)!!!!!%.% + %    =   ; @  @-@ @ @ > #@      $ =   * $..+&+%!+%+%.%.+.+ . .",
" + &$. +=+=.$=]#@  +=.$+&+.+ +.+.+       @@ @{@-;+!)!%++)!%..$.+=.   =  @ @   @ @=@ ;-@ @@@=@ ; =     = .+&+%!+~+.+.+.+++&+=+ % ",
"$. $. *.  +   '#= % .$& + $&+=+&$=  * % =@; @ @  !)(!!!)!!++%.*. $ =     = ;   ;-@ # @ @  #@ @@  $= =  .%!+!+.+%+)+)+).%~+++=+ +",
" *.=$.  += += #'   .$ +.*..$.$.    . . @@- # @= +)!!)!)(!)+. +. =   @  ;  @  >  @ # @=@=#@;@#@=      ++++.%.%!%.++.++.+++%~+.$& ",
". .$. $& + .  '#= + =.= .$&$&  *.+=$= @-@@ @ @#=!!!)+!!)!!%.%.=$  =  =  @  = @ @-@ ; # @  @#@.+=  = +&+&+)+!.+.!%!%!%+%+,++.*. +",
"$.* &$. $=.*.@>@  & + $ . +.$.%.$   @@=@=@= & @ +)!!!:!!+)++  +     @ @ = @-@ > ; @-@ @ @=#@=++++%++++!++.+%+%!+.+.+.+.!++%+.$& ",
"&  +   = .   @@#  $.  .*.*. %.$. =@      ..++   !!+)!!)!)+. +& .=  =  =   = @ @ @-@ @ @=@ @@ +.)+!.)+,+,+).!.+.+%+)+)+%+&!.+&$.$",
" + =.$=.$ % .;#' =. %   .  =  %    =  &$.%+)+% =+)!!)!!++.=$. $  $ @    @ @@{@ # ; ;-@ #  #;.%!.+%+++++++.%+&+%~+~++.+!.++%+.+=.",
"+= + .     $ @#]  $  $&$ *.  + +&$.$&$ . +!+!+  +!)!++)!)+$&$ & = = =  = =@ @-; @ # @= @= #@ .+%+.+.&+&!&++.+.+!%+%+)+%+&+.+&$.$",
" + & *. *..= @#;@.=+.      +& + + %   .*.%!)!%  %!!%!+!+.+. . $           @-@ @ # @ @ @ @ @] %.+.%.++.+++.%.%+%.+!.+.+~++&+ +.% ",
"  .$ .   =$  <@]@ .  = = .=  + +& +. %  .+)!+!  +)!!)+)+% % * .=   =  =  ; @=@-@= @=# # @#@> ++&+.%.&+=+&!+.+.+!.%+)+)+%.++&$&$.",
"+=$.*.$=. . @##]]; =   + $.+&$& + .   .$.++!%!; +!+!+!+!.+.+. +  *        @@-@ @-@-@ ; >@#@] &++.$.$+.+.+%.%.%!%+!.+.+.!+& +.$.$",
" . +    $ $ ;#'#]@@  .$ &.* +.$.  * =$= =.%.!.@ .)!%!&!%.%.% % =    = = ; > @ ; @=@  @#@@#;#@+.% %.% %.%+.+++.+.%.+)+)+&+++= .=.",
"+=+=.$& .=.@#'>]@#@@=$&$ + +=+&$=      $.$.+%   %+!++++++.+.+.  $ =      @ @-@-@ @ #@#@#@ @#@=+.+.$.++.+.%+&+%++!+&++++!+& + + $",
" + .   $ +=@@]@]@]>@+ . .$& +.$.+  =   =  =+. = +)+)+%~%.%+*.=+ = $@      @@; @=  #;#;@@= =@# ..+%.%+&+%+.+.+.+.&+!+.).%+.$=.$=.",
". % = =    #>@]@;#@@.=+$&+ +=+.*.+   *  $.$ =++.!+!+~++++.+.$.    = = = @;- @   @#@@@    @ #'@= %.+.++.+&+%+&+%++.%.+++~+&+.$.+ ",
"*. $     =@@@]#-@@#@.+ .+ % .+ + % =    = &$.+.%+)+)+%!%+&+=+ =+=$        @ = @;#@;@  @ = @@>@      =+=+ +..++..%.+&+&.%.$.$&.*.",
" $. =  =   #@>@@ #;@=.% . .$& & .   $ =$.$..%.+.++!+.+.+.+.+  +  . =  ;@@ = #@#@    { = @ #@]@@@@=      =  *  =$   $  $.+& + +.$",
". =       @=@'# ; @# + +=+*. + $ =$.=    = $.+&$&~%!)+)+%.*.=+=  =.$ @  = @@@@  ; @ @ @ = @;## {@@@@ ;@          * .=+.*.++&$& .",
" $  =$=.= @ ##@@ @#@  .$. .$.*.=.+     = + &$.$.$++!++!..$.+  + $  = @ @-@ -=    #=    #@#@#]@@ @ =@   = =@= =     +.+&++&+ .+$&",
"  =      @=@@@#=@ @#;+= % +=+ ++ =@ @=$.$ .$&$&+& +)+,+%.% % +=  = @ @=@    @ ; @   =#; @;#@]@{@ # @ ; @ @ @ @  =.%.*.++.++.% . ",
"     =     @>]@@ ;#@@.$.$.*.+&.        *. *. +.+  %+!+!+ +.+. .$   @    ; ;  @    @@@@#@#@@>]#@@=@ #    @ = @ &+++.++&+&+&.$.+= ",
" =@=     ;  @@#@ @#] =. &$.+. @;   = =+ .$. +.%.% ..+)+&+= * % = ;  = ;     @  =@ > #@ @ ##']@@#@-@= @@;#@@ &+.+.% %.+++.+%.*.  ",
"     = =   ;#@=  @>'@  $..= @@  +&   + &$&$.*.++.$=+!+.+ .$.            =@ = =#@#@@#;@#;#@#]@<#@@ #@##@  =.++.%.*.+.+&.%+ +.+ $ ",
"@ ;       @  ##@ #@##@@=  @#@= *. + = .$ .+ .+=.%. &+)+= +=   =    = =      @#@ #@# @#@#@];@]#@>#]>#@= =+.+.%.$.+.+&+++.+&+=+ = ",
"    ;  =@= @@;@ >@]@;#@@@#@= + .$ =+ +&.+=.% +.$.$  +..$.  $=   *      = =@#@ @>@=#@#@>@#@#]@#']@@@  +.+.%.% +&+&+.+&+&$.$.     ",
"  ;   @    = ##@@#]##@#@#=.$. + =.$ ..$.$.$.+ % %.% .%+.= =   $  =  =    @ @#;#@@#@#;#@#@;#'#^##; +&+&+&+.+.+.+++.*+.+.+=.*.* = ",
"    =  =@ @ @@@>#'<@@@>@ + &$& +  & *.$& .% &+.+ +   + +    = & $  $  =@#@>@@#@#@@#@ @ @-@#]#@ +.+&+ + +.%+%+%.%.+.%.%.$.+      ",
"@ ; @ @  =  {@#@#'#]>@@.+%++.+%.*.$. +.+ + .+ $&$&+= &+& =  $.$.  = =@#@ @# # @ > @=#  =@#;]@ & %.$.+.% %+..+.+.$&+.+.+&$& . =  ",
"    = = @ @ @@#@]#'#' &+%.+&+..$.  % &$& % +=+..+ +  @+  $.*. = = @@@#@#;# ;@@{@ @ @ @@#@@]@@=    = % +.+.%+&+%+.+.%.% +. +=   =",
"= =@  @ =  = #;@#^#] .$.+.++.%+% % . +. + +..*.* %.*  =   $  .   @@# @=@ @ #  @ @ ; @ =@#@]#    =+ + +=$&$+.++.&+%.++.+.*.      ",
" @   @  @ @ #@#]]#]=$.* .*.%.+..+.$&$.*.+=.*+.+.+ +  @#@=+& $=@@#@=     @ @ ; @ @ # ; #@;#];@  $. +=..+.$.%+&+++.+&+=+&$. *  =$ ",
"   ; = =  = @^#@']@.*. +  .$.$.%.%.$..+&$.$.$& $& %.=@@ .   @#@@=   ;  ; #=@ @ @=@ @ @ @#@#@  =.$& +.$& .%.$.+&+&+.+.+ .$       ",
" =      @=@#@#@>]#@ . % &$ & %.++.+&$.$.+&+.+ +&$.$. @> $=@@#@=       @   @ # ;-@ @ @ >@#@#@=  $&$.*.$.+%++%.+.$.+% %  % & = =  ",
"       =    #@]#'#$&$    +.$. $&+%.+.*.*.+.%.% +.$&$= @ @@@#;  +.$& = =@=@  =@ @ @=#=@@#@];  $ .$.+.*.% ..+.%.%.% .+ .$.   +    ",
"  =$=     =@@>#'#;.  =+.%+%.% .+.++&+.+.+&$. .+=.+.   #>###@  % +=   @     @@ @ @ @ @-@@;#  =.% &$&$.+ +%+&+.$ + %.=+=.$=   = = ",
"=    =  =  #@@]]@.$.$.*.+.++.+ =+%.++&+&+.+&$% .$.=+ ;#@@@; = ..+.$  = @ @=  #=@ > @ @#@#@@  .$.+.+.+.%..+.+ %.%.$.+ .$.  *     ",
"          =@@##< +&+=+.+&+&+&$.+..%.+.++&+.+. += +  . @##@   +=+=+ = @ =  @-; @ @ @=#@;#@#= %$&$&+&+&+.+%.%.+ + .&$& +=.$    *  ",
" = =  * =@ @>@]@ +.+.+&+.+ +.+=.*$.+&+%.+%.%+& $  &$ =@@;  = .+ .*.     @ =@ @  @  @@#@#;@   .+.+.+.++&+.+ % %.*.$.+  + =  =    ",
"  $        @ #@@&+% +.++=+&$&+.+.+%.+.+.+.+ .$.=  $   @#   $.% ++.$ = @ = @ @ >@=#@##;#@#@ =+*.*.%+&+.+.%.+.+ +.*.* %. + +   =  ",
"    =  =  =#@]>@.+..%.%.++ +.+&+&+.+%.%+%+%+*.$.*. & =@#@=.=+ + % %.  = @    @ @#@#^#@#@#;   . +.+.+&+&++.%.*.% +.+ . +& = =    ",
" =         @;#@ % $.$.+%.%.+*.+++.%+.++..+... & . $.$.@;# +.$&+&+.+       > @>@#@#@#@#@#@  % %+=+&+.+.+&+.+.+ +.*.*.$&$.$   $=  ",
"   = = * = #@#@ . .&+=+.++=+.+.+=++&++&+%+%+=+$.$=. & @#@  %.+.+.+.% = @= @@#@#@#;#'#;#'= .  + +.++&$%.+&+&+=+&$.$.*.+ . .*.    ",
"  $  $   $ @#@;.$%$. +.%+.+ % %.+.++.%+.+.+.+. =. $.$ @#@= .+&+%.%+.$   ####;]@]@#@#]@]#  %+.%.*.+.+.+.++.+ + ..*..  =.*. . =.=$",
"$=  =   =  >@@ * ..+%+&+.+=+.+.+.*.%+.++.%.%+&+ + .=.=#;#@ *.+.+ + +=  >@@;@##@#;#@>@]@; + &$. +.%.%.%.*.%.% .*. +=$ + . $=$.$. ",
"   +  =   @@# ..$%.%..$.%.+.%.*+%.+.+%.%+.+.+  & * $  @@#@   &$&.%   @@@##@#@@>@#'#'#@#  &$.$&+=+.+.+.+.$.$ .$.$.  .=  * ..  =  ",
"  = =$ .$=@#@=.*..$.++%.$.$&++..+ +%.++.+&$&+&+ $ . @#@#@>@@     @ @@ >@@@#@#@#'#@#@>@ =.$..+.$.+&+%.%+&+&+=+&$.=.=+ +. + $=+.$.",
" $   . =. @ @ +.$&+&+..%.%.+.%+&+&+.+%.%+.+.$  .& $=@@>@@#@>@ @ @=#@>@@#;#;];]@#;@ @@#@ $&$&$&+ %+.+.$.$. .+ .+ $ $ & =.=. . =. ",
"  = .* +  @#=+.=.+.+.%.++.+&$..++.+.%.++.+%.%.% $. @#@#@#@# @@#=@@# @-@#@#@#@@@ @  =@# =.+..$.*.+ +.%.%.*.$ &+ &+& . .$ + $=+ $ ",
" $ + . = =@#  %++&+&$.+&+%.$.%+& % %.+&+%+.+   += =@#@@>@#@#;#@#@ @>@@#@#@@@ =-@ =  #^  +=$.% +.*.% + + . =+ + +  +=$ .= .=  .= ",
" = = *.   @ *. .+.++.*.+.+.+&+.++ + + ++~+%.+=+   @@#;#'#@;#@# @;#@#@##;@@=@ @@=@ @ @# . +. .+=+.$.$&+=+=$   & .=.  .=+ .$ .*.$.",
" .+ .    @-  $%.%.%.+.+&+&+ +.%.=+.=.*.&+.+.   =@@#@#@#@#@#@#@>@#@#@;@@ @ # @- @- = @]=$& %+ .+ &.*..$.+..$& $.$ $&$   &      .=",
"   =$  =@ = & +.+.+.%.%+.+%.% +.+. +  ++.+&$=  @@;#@>@@#;@@>@#@@#@;# # @ ; @ ; @ @  ;#   + .=+=.$+. + & $= $  = &  .&$.$ $= $&$ ",
" =   &     $.$&$&+&++.+.%.+ .+=+=$& .% .*.$   @ #@@#@#@#@#@@#@#@@-@ @=@ # @=@ @=@=  @#@+& +.$ .$& +&+ +    =.$.$.$   .= =       ",
" $   $ .$= .=+.+.++.%.%.+.+.% + +.$=$.$.+ &  = = #@#@@>@@;@#@@; #; @ @ ; @ #        #@; $.=+ %  +.+ .% & *    =   &$&$.+ $ =  = ",
"  =.= =$.  *.+&$&+.+.+.$&+=+.+&+& .+.%.%.$ $.   @;@>@#@@-@#=@-@# @# # @ @=@  @  @= ;@## .+. . +=.=+ $      $=   &$ .$.+=. .$ $  ",
"= $ + .  =  .+.+.%.% %+&++.+%.$.+++&+.$.+& .* =  ##@]#@#@@@# @ ; @ ; ;-@ # @ =-;   @#@@ = +=$=  .$. & & $ =  $ $  $  =   $=.= = "};
