/* XPM */
static char * zelda_west_xpm[] = {
/* columns rows colors chars-per-pixel */
"128 128 72 1",
" 	c #1C0000",
".	c #001C00",
"+	c #000000",
"@	c #00001C",
"#	c #1C001C",
"$	c #001C1C",
"%	c #1C1C00",
"&	c #1C1C1C",
"*	c #39001C",
"=	c #391C1C",
"-	c #1C3900",
";	c #390000",
">	c #391C00",
",	c #393900",
"'	c #1C391C",
")	c #39391C",
"!	c #55391C",
"~	c #551C1C",
"{	c #393939",
"]	c #553939",
"^	c #391C39",
"/	c #551C39",
"(	c #1C1C39",
"_	c #1C3939",
":	c #555539",
"<	c #39551C",
"[	c #55551C",
"}	c #395539",
"|	c #55001C",
"1	c #71391C",
"2	c #713939",
"3	c #71551C",
"4	c #715555",
"5	c #555555",
"6	c #715539",
"7	c #713955",
"8	c #553955",
"9	c #553900",
"0	c #8E3939",
"a	c #551C00",
"b	c #8E5539",
"c	c #717139",
"d	c #8E5555",
"e	c #717155",
"f	c #557139",
"g	c #8E7155",
"h	c #8E7139",
"i	c #8E551C",
"j	c #71711C",
"k	c #711C39",
"l	c #555500",
"m	c #8E8E55",
"n	c #8E391C",
"o	c #711C1C",
"p	c #55711C",
"q	c #718E55",
"r	c #AA7155",
"s	c #717171",
"t	c #8E7171",
"u	c #AA8E55",
"v	c #8E8E71",
"w	c #AA5555",
"x	c #AA8E71",
"y	c #8E3955",
"z	c #AA7171",
"A	c #8E8E39",
"B	c #8E5571",
"C	c #AA7139",
"D	c #713900",
"E	c #557155",
"F	c #8E711C",
"G	c #715500",
" .+ +@.  + .#.+ $%+&+ +.+ @.@ @+%+@%@+. @%+$+#.+ .@ .@ @. $+ +#.+ @+++$ @+.+%+%+++.&++%+@ +&+#.+.+@+.+%+ +#+ @%@ +$++$+ +@ .@@. ",
"@+@%+  @.@+++@.++@++.@+ @.+ . ++ +.++ $+@.+.+++@++.+ .+.+ + +++#+.++. + $++@.@+.%@ ++.#+.+++. @+ .# ++@.@+++. .++.# @%+$+. @%+#.",
" .++ @.+ + .$++ .$+@.+.+++.+++.@.#@ +++ +.+&+.+ ++@ ++#+++$+% +.+@+ +++++#. . +@++.. +.++#+++#.+$++$+%+.+.@++@ $ ++@+.+++@+#+.++",
"++&+ +++ ++@+ .%+#+++ +.+ +.++ +++ .++.+.#.++ .@ +. . +%.   ++++ . +@+@+ ++. +.+.++ ++# +%+%@ ++ .@+#.+  ++#+%++$ #++@%+%+ . @.@",
" +++.#. .+ ++.@++%+&+@+.+@++#+#++#.@@. ++@.++@++.+++$++@+.++@ $++++. . +$#+.++#+ +.+ .+++++#+&++.++@++..@+%+ @.#++@.%@+@+@@.@+. ",
"@.++ @++ . $+%+ +.@ . + + . .+$+.+ .+ @++%+&+%++ $+#+#+%@+& ++ %@+ +@+++ +.+#+++$ +$++%.@ +. +.+%+&+++%+  +++  @.+ @+%.+ +%@  +#",
" . #+ .+@++.#+.#.#+++@.++@.+++++#+@+++.& .@.+ .@+++ .+%+.+ +&+++. @.++&+@+&+. ..+.@%+#++ ++@+$ +$.@+$ +++@$+&+@%+%+@+@++. @++$.+",
" @++.++@ %+ +.+++++&.++%++@+$   . @ .+++@ .++@. +#++&+@+.#++ + @+. ++ + &.+.+ + + + ++%@.#+.  @+ +%+ @ .#.+ ++%@+@@ +%%++@%&+++&",
"+. .##+%+@+ @ .+%@++++ .+ . +@.+@.%+#+%++$+++&+++.@%++%#++ $+ $+%++. @.++ +%.#..@.@+.%++ +. @.%++$@+ ..@ +#+&+%+ %+%@+@.+.++&+%+",
" +@ ++$+ + $.+ #+%@ . $+@+@.+%+@+++@+++%@+%$ ++$ ++%+#.+.#. @+ ++ &+$ + $+&+@+ @++%%@+#.+ @+ ++@%+ +$ ++#.+. .@@%+.@ .%+#+&++@@ ",
" $++  %+. ++#.$++.+$++++ .+++@+.%+ %+.#@%++ @.#+@.#+%+ @.+ + +.+&+++%.+&+.+ . .%+.#+++%@%++%@$ + $+#++%@ +&+@ %.@+&+.@ +. +#+%. ",
"+++&++#+@ $.++ +%@+ + .%++&+#+% +@.@++ .+ $+. +% +.+@@$  ++$ +#$ @%++@%+ #.+&++#+@+. &.+@%@ . &++%+.+%+.++#. $+ + . +%@%++@%.@ $",
"@% + $. . +#.+ +$+%+.#++@ +. ++$+ %@%+$+@%+%@+$ $+%#.+%+.. #. .+ .. . @#.+%@%+$%+%+%@. +%++&++.+&@%@ .@ &.+#. . $+$ @.+%+&+#+%@+",
" $.+#.+ @ .+ . . + @+.+%+ @+$ @+$.@+++ #. $++%%+ @.+#+%@%#+++@ . +##+. .%@%+++%+#.@ + $+#++ +@ &+++&+ %++#+.+@ @.  . +#.@+..&++&",
". +@% @.#+ #$+#+$.@ . ++@.%++%+ + $ +@.+&++#.@++.+#.. $+#. $ %@.#.+.#%@.#+.@ $+$ +$#.#.+% $%$%++%@%++.@%@%+& +$%++$+%@%+%# + .$ ",
" $#%+.#. .$+%+%.  . +@. + $+# .+%++#.+ ++&.+% $#+& @%@+%+++.+#+%+& .+%+$ .#% &  $ %@. $ .#.#++.&++&+#&++ .@%@.%+$ &+%+&++.@.&+#%",
"#++.# #%+ @%@+&++. .+%#@++ +$+$#$+.%++&. @ @. + $+.#+%$#.#%+ $ @. +&+&# @. +@.+%@%@ &+%@%#+%&# @%$+. .%@. %+# +&+ ++++.+%#+ +.&+",
"+&+.#.%.#$ . .+& +@ $.++&.#+ % +.+#+$ @+%@%.+@&.#%@%&@+ +$+&@ %$ &. $  $% @&. &#%$%& && &+%#%#.%@% +@#+& @#. . . $%%$ %#+ $.&# &",
"$  @%# &+ +#++ ++&%+ +% +..#.@.++&+%++. @+@%@%+# &.#.%%.#%  %&  & @ %#.%&@% .&.&#%&%%& $%#%+%$#% &$%%++&+%$@.#+&+%@+ #$%.#. +%$%",
" @.%+$ @ .&+&.+&%+@+%@.@#+@%+ +&+ @+# +&+%&%+& .& &%$ @#. @%+& %&.#%.&&%#%&.*%#=%&*&.&%#% &#&%%#. #+&#.& +% . %@.+ &%.% $ $ &$&&",
"%+#. . %$++& @%+@. &+ %++&+$+&+.@%.#..@ +@+& $ %#&%& &%. $+ &%&& &%#&%%#&%& &&%&&%&%*&&%&%#-=&=&&%% .& @% @$#&+%@%&+& @& & %#%;&",
"$%+&#%@  #%+ %@% &+ .@+%@.  +$ ++@ .++#.&%%&%&&%&%=%& $ &&%@%#>&-#%$>&=&%& &%&&%=&=&&%&>& %>&&%%%#&.#%.#%@+% . & +#%%@% %.&$>&=&",
"#. &+%& $ $#+%+ @%+&+%$+ &+@% %@& +& .%+ @%#&%#%&&&&&%#%@%*%%=#% &%&&&>&&=&&%=%& &>&&=%=#%&*,&==&=%& .#. .#. .#.+&.#% %$%#%%&%&&",
"@%#& & $%&+%. $%. %@%+ $#.% #$+..+&+@ +&%&&&%=&&;'=>&=&&=%&+& %&=%#>&;=&=%%&&%=&=%=&>#%%&% $&>&%& %#&#%& .#+&#.& .;.&%#& %#.#=%&",
"& . %#% #+& #.# #.&%.&# +&@%.#& @%+.%@& @%#=&%&=&=&)&-&%& &>=&)=&&=%%'%=>&#>%*&%=&&>&&==%&> &&& %&&% % &&+&. % +&%$ =%&%%&>&>&=%",
"%&&%&%=&%% $. % $%#.#&%.& %# %+@++& @% $>&)%=&>&===%==*&=&%&&!~)==%{)~~)=%)&&=)='==&])=)=)=)>&>=&%#%&=&#+% &#+&$ %=)=&>&=&&&&=&=",
"&%#&=&=%#&+# &%#%#%*%$%#&&&%$&%.% $ %@&%&&&)&=&=>')=&)%=%'=#=))'=)==&{)=)=)=)))^!~)!)&))/)=){=))==-=%=%&>#$ .& &%&=%='=)&=>,=)=)",
"==&=%=&&%#%&%%#%&%&&>&%=%& &  &+#@.#$>#==%==&)==)~{)=)'&=&=%)^/!^=)=))/){)(){=!){)~_)!^!)=)!)!==)>(==&=%$&%=%&=%&&&))==)=>()={=)",
"&%&=%=)>%& #%&%&>=>&&&>&&=&%.#+%$% .%%&%&=)=))&)&{,=^)==&>)#!)!=))='!{=)!=!==!^)~){/!)])]])==={=)=))=)=&*%&.=#%&%&==))='=)&)=))/",
"=&=))==&&&%%$>#%#&&==&&&&%&#&$ $ #&#&&&==&))'=~=!]{!)>&=))==)~{)!=^!=]!!)])))!{])]!)]=)!=)=!{)~)!)=)='&%&%=&&%&)&=))~{)~))==)!^!",
"=='===)==#&==&%=%=,'>)>==>&>&%%#.& &%==&=)~=~)'))={!{=)~'~&,]:)~{!)){!{{^!^])!)<]!)])[]{!]!}~)!{=&!&!)==>&#=%==%&=>])~){={))/)])",
"=)&==)==&%&%&>= &&=&=&&=&'*&%& & &%&=%==))()'!{|:!!)/))=)=)=!~:!)~{!/[![!:,^:]]1{!]{]])[{])!:)):]!{)^=%&='=>&=%==&)!{){!)~)!{!{!",
"={~)!)])==&>&&>&>))={))=)=)&= =$#%&=)&)==/!~{~)){!}!){)={)=!}][{]!{[{[^])]:<!):)][]![{!2!)]!]!]!)=)~!)==%=&'&==)=)^!=[/<{!{=<:!]",
"))^){~)=&>&=,=&&%=!{,=)=^)=%=&&%&&==%^=={))&))]][]])/)]!=!)]]!/!!{![/][!:]!]:]!]]][]]!:{!]!{!:])]!]))/-&=)==='=)'=[!{:))!=[]:!{]",
"!)!!)])^))=&&=,&=){)))==)~()=%=%=>&&)=))!)]!!/)~:!:!<!)){~=!<2::)]!]:[2]}]]]!]:![]]:]3]][]:!:!!])~)=]<=~&>=)=)==^!{!]{!:])!^:]:!",
"~^)/{!{!==&=!)=;&!]]^){))))=&=&=&='!&]=!{[^!{[:!]]])]]!/!){!4]!]!:][]]![]2[!5)!]]:2:/6][]]!:]:!][{[:!!=&))^&),^)!)[][:!]</}[1:/:",
"!){[:!!)(!=)&~)%=,])!!{~{~))=&&&>===))!^!]!<]]]):![]!)[{[=!=6::]]]!][:4]::]2![]]3]6:::2![!!6]]:!]~{!{]>&=)=!)=~)={]!!]]!!!]]][:2",
"{!:!~}]]~))=))~&=]}]))!]){!=)=,=&)'=)])]{:)])])16]][]]!]]<~!:23]6!:]42[2:2]:::1:6]66]26]]{64[2]!:!!{!!)=)/)!)){)!![]{6]:]]!:]6]:",
"!]}!]:!:====!{)>=[!]<]{=:!{)==(==^=!^!/[!]!{![2{66]]!:!)!!])15652:2[667[1::2]46866266:3]6262:4[2:):][!&!)!{={~]<^!]]:!:!][:][73]",
"}/]][6/!))){)~,=&!]]!]!])]~!)~)!'9{))<[]:![2:2[683]:!:~])]!!462666]6]3:7642:66466664:6!6!:6530[!]1[/[)a==])]!)]!)[]:6:2!]][]66]6",
"[[:2!:![/)~!!:)~=!:]:!!]!{])/)&=^=]!]]!/:]]:2:24:b62[]][][=!5b64:2:b4:66:6:646c4646[62]66666]4:46<][]!{>!<~)</<!{61:1:2}6]!!:4:6",
"]]]]:2][{])])])~'!4!:]:]):!!))])!)!{!/:[1!:2<23:651:]3]3]!=!64[46b]:2b:42b5346d6e6]6256[243643]6!2]:~[=!=]:]!]]!]{6]62f16]662662",
"[]3516:!!!:!):!~>:46{[!:[]{]!=!)^!{[[][]{:!65250:b:2:2:]6!~)d6g6:664c46:e66446e46d6[61656:6662:36:6!:2<~:!{!]!!:![651:7:2[6:662:",
"!4:26:]:{!{]!!])~:73:]68]3!{:!{]!)][]]2:66:23:b:43636!662)>34h764653664b464be4bh46:4266266234360:2:]!]])!]!:!:]]:2:656b[26]b:6:6",
":6156]2]!]!!:][,~[4f2[:]68][!{!=]]!]:!62!2464662626]656::3*}h46cd:b646b4cde4bec4h4b3c2361:e4:44[26[2f3]!:]]1]][][2361:66434:b666",
"26:2]6:6][]]!6]=!4464:23:1]]:)]!][}1:2:2:666624666]6666b2:!1g6d42c466g6gebcdcdbh4be46e6e461b63:2:62:22<~]2:<]:]]]465462[426c6426",
":3836!6]!][]3{[!~:b:6]4:7[:1!])]=]!]:36:2:665c6e64b4664:66!34h6cb466e2h4d446g6466c60eb66646666b:6]36[1!)!:1][][6616666:b4fd266c]",
"4:66:]3:6)2!!22=94e]43:61:])]][]!]:!:2]26466b6d2e6e6:66b46!:g4666d6b6d466h4b4c466646366b664366]6662:2:!!:][]26!]666466e6664c4i:b",
"623]06:26][]:6:!=6g64:6!42!6:!]!:{!]:6[63666c236b6g6g6e666!66h44h666e634666:b6660:b:646666662:b663676:2[!:]6!653:2c43466466b646:",
":664346!:][22[!a!64bfbd]6::]![!]!!6]1]6]:62436:b:3664b:266![47ccd4b8j643b:i66666366d66b:b:2e322:67:61[~!22[]:]62:46b6c66b666666b",
"266:6624]:]2f2!=)2666:63623]]]]!:1:!63:d3466]d[4266i466666!26hd4c3:b66:b46661:26:b666646bc66b:332636[][]!:!k[6[4234341:6:6:d6c26",
"]6!3!:l)a1!![~)>a!<!]3]4d:23:1:]6]!~!]b:466636624[44362646~1mdcb46666n6636[266263646662[6766[!]!66]!!9~a!!6<6!~)6b:!:!!126632]3:",
"~,~~)~~>=>)~9!!>~=a~>~!9)!!~=1=!!>=!=!!!!9![643632:66![!3>~![g666i7[6643464[61f26]33]33]!3!!!)!!9)~~>~)=a=a~9~~,=,!o~=!)!![!!>~~",
"[36436[)a!!14bg6:b3p2[!)3!][!)!!a]>!!9)9~=~=~a)a=!a>=a=>~>>>~~~!][,~>=!!!!a/[!!!!!~)!=~!~)~=~9!!!9~!3]i:6!![]6]3!23]33!231!]!![[",
"4g4h761~:ggebqrermsdtuggdgd6435643664gd4:6!!>>>=9!![![!]!<6!!:66[26!:!:!!![[!k[~)a>>>)9![63666dedmgmegedc444c6d6e646e4hc7e4b64dg",
"664gdc6!6g4b4deggggbgerggg4656d64eggghbg6dj~!%96vrerggwmggr[6gbggdegbgb4c42d466661=a!1egggghx6dhgergdhb4g6bcd646c4h6d646d66ebeb4",
"debebg6]gg4ehedhg4heybeg6g6hb4:4b464h4g6466!!~2mrtgr4mgrg4424hedhg4ggggbg646cdc66[)a6gggdggtcdeyc4e64466hdg46g6d4b464h6dcg6d6dc4",
"6g6bed6[dhb6ebedhdgbe64hdg6e64be6g6ded4c661[!)gqdgdeggdm4666ggh4g4cbeg6g466g6h7:!6~=6zgggdehdg6cd6b42h6g4g6g6dc6h4h4h4g4b46bgc46",
"6edg6g6!ged4hdge4gebgdhe4h4ddcg6g64h4hcyc6]b!1gggcdgg4hgru64cdehdhg4dh4b6c62ed3b1:a)6zqggcgdc4h4g64c464hgcd66d6d666gcb6h4eg4cdcd",
"4bccgd6!cg4hdgcdhgdg6egdheg4gebgdeb4c64d6b46!!ggbg6gdhgd4ec4g4gbgedbbe4646d4b66441~>bthddghdeb46g6dbc6gbgd6ge66c34bedeg6eb66g2g6",
"46t2gc6!gg6bebg4g6gcgbedh24hbegdc6g66dj64dc6!!gtggg4h4gcduyhbc6g4cge46h6b66c6466c[=9gxdggctg0ehe6eh4b4gedcg4b4b64664hdg6bedheb4c",
"ebbedg6!bgdededgb4bg4d664g6c4bbeb46deb5b646b)!ghd66gg4g6gggeg4dgdgd6bh446c46geh4d[!!mtA4g4h4cd4bcd4666g6gdhb4c64bed6g6be46d64eb4",
"6e4hgb464e66hgc46edcd6g4c6h4h44be6643466c466!!gtcdg6hh7gcggbcd6heb6g4e3b6h6g6b46d6~[gxgdhgdhg6d446cb4b4gge4dcb6c66cd644h6ceb4bc4",
"6g6d6m7[r6gd6edehdh6dce6642gdc4cdcb4b66d6d66!!gdh4cdsb6ggeb4dcd6d4b4h646664d64bcb:~!rtheg4h4d4ccdc0cc:gbg6bc6464i4g4gc66d4bcbeg6",
"gd6edcd9edh6gb6bge4h4c0h4bcc6dcbe64h6ebc6666~9gmd4hdhedcgg4ebehdcec4eb6646hh4cd4c6a]vrddehdc6h4b64466d6d6g44634664h46h434cde466b",
"46h4hg6!md6egedegbe6464466d4d64cy6g6g64666d6a:edcd6gedhBgbe2ggdhedcbb46bc44g4h6641)bgeheC4ed4dc46c6i4c4heg666b:6eb4bc46b4bc6hde4",
"4hecdg6[dmd6dcgbc7h4bh6cb4c4heb466464b664c6[!2gg4h4bemcgbg6dcbedh4g64365b6h764g6d)!6vdg4ghdch666b66464h4b4g66!bddgc4b46b464g2hb4",
"64hdg4d!ebgebe4gb46gc44b464h4b4be6h4666c4i76=1md66dgggd4gh4cd4cd6bebc46b64dcdc6431a4hgbgbed44ed64i53dcd6gb4364e6h64bc66cbeb4h4e6",
"4d6dcg6!dg2gc7hbe46h7c666h6b4c6i4d666b666c63~:gg4ehgmdg64eb6ebdcg4g4c666cdcb64b4e!~6geggeb6h6b6c664bebedcc4b:i6g4664b466664c4cdh",
"66cg4g2[ebge0eb4g6g64b4b64dcdc46c66d646b462:9:rcb6dggg6eb6debe6gb46666b64b4ecdc63!)bg4b4bede4464b6646ebeb463464h6edc6666gcb4bdc4",
"ded6gb6!6e6g66c4cd66g666466643626eb6c6e66661!6zc44hdggdh6eeb4ged6g6be64c6466b464b!a4m4beb4bcb6h46c4bgbe64b4c2[dgeb6466c264dcc04c",
"66ebged!6gg6d4h4b6ed646cdcg4b46h46664h666b6{94g66c4hedcd4bb46d6666643664dcdcb4h6:!!6hb4g6gc4cd4c6d6h6e466640cdhc24b6b462646h4eh4",
"4h4g6g6!4b46cb4c4he6b36b66eb66:06d66644b:263~6gd4g4h6g4h64c6c66dc64i5b6cd63664666!>4geh4dbe4i66166644bbc4cb464g7c6646b66666d664b",
"46dhg4636dc66g6deb64c46e4b46eb16e6c2h664366)~6g6666ggb4ce66b466c66666664b46646b43!!3ggdhgb46466666dcbe67h66cbe6cd6d6c6[626c66436",
"66g4Ad1)643614cd64b:b6h666dc2c666b6466cb262!aer6d46gg46b76g4hd646b43266c4b64c6664!=dgbebeg6b6[6]h4c4c4bcbe464cd6c6666d6:6[666h44",
"6ehgdc6]1626:64b66:64624666b464e6666:b:2:66,94ce6h6g6b46g6h6d6g64c2464b664c3d6666!9c2c6debee464b4cd6dh44646b666b6466662326b42e6b",
"64gdgd[>[6:i2636[11:b666i:b46i666666i42661:~~6r6b44c6e66h44c464b66636666b4b4c2666~~6446e6ebcb4beg2gc26gcd6d6d34666b4h46e666e6dc4",
"b34663~~!!!!:!3]16!!2[6:6]6367:2b566]6:16!69=4h4666d466becb6gc6666626666e6462h46[!>63beb6g4b4c6ebe6b4e646dc6ebe6h4666d662cb436i6",
"!!9!==>a>~=~>=!~)=![!!!!!!!=[![9)!!,!9!!!~=>96g46b6eb6i46gd646b662:664c4bcdc43c76~!!:23623664b466664i6cdcb44c6d64662[]6b626[~!)!",
"!)o)1![![!,!~9!>a9]6g6]!3]3662262n]1!3]62[[9=4h66eb66e4g66646436662b66bb464i646b:9%a>!!)a=!!9]9~a![6)1!![![!2[!![!9)!9)>!=!!!!/!",
"4be646464666g65!=!hdedghdgdem6gebeg466recd6=a6eb664cb66ed6c6h:y6:6c6646664b44346!!~>:0:3[3![!!1<!!~a!>a~a~>>>a~!1:12!~a[366g6gcd",
"6ggggmrggbgcdhd[!3g6b667c6cd6debeb466dedh469!6646e6b4d464b666366b]66666c4b[6cb:1!a=1gggggdthd6e6dc66!][6[~)a:6ggeggm664dgeg4g4g6",
"dehgr4hgedggd463~]d4e66b4b46e66c7cde66h4646~!:h666b46cb6b44b646366666d666c4b6d623)!6vgrtgdegdgbgdgd6:b4466~~cgggdc42ghg4hdhgbg64",
"cdgdeggedghdcg66,6g66i:6cd6be6h4bebe6ded64i)9b444bfb4h4ec6666b:4:23d:6646b4c666:6~6vrggcdcg646466b4:b66466a[gu4b67b6646gdgedg6g6",
"4bgggdgcgedeb4h]~cebc7664beb6d46g6g6dcb6he2!!26c64b6646b466c76b3]66666b634664666!!6redgehd666h44ec4h62cd31!:dtd4cbf4c2gcbebcgd6e",
"6ggcggewdrcd4c46D7r666366e646dcb6edbe6ge466!!66b46666d64b6d6c666]3:2e6:g2c466b:h=9dtgehg4g6d46bcbd6664g64)~6tC6e666bb46dcyegb646",
"4ghdghgcg664b64[!64c67646h4h4h4ede6dcde6h26[!2c6b4h4c6be6b664646b666b6664b63b:b6[:hghddg6dcb66644cb6666gc6!!uebeb4666e646ebe4cbb",
"hdegegemdde64641!dg6636cd66g666h64h4cd664g:2,66642eb644bc44b6h6c664bE6b666642642!14u4hecd64e6ed3662c7h4241!6ebg663664h6g66gbe6e4",
"debggddg6cbei4c[]cg4b642be24cgb4bcdeb4b4366!!]64c6bcb6646c46444b46b666e6d666663662mggde0ec4b6b64466664cb3:!6gde764b66666beb6d6c4",
"cbggdhgbede2cb22[bgc4cb6c6eb764c4dcd6g6cd62[ab4b6dc44dcb66bbcb6eb646d6264346]6d]<2gdgebcd6d66466h6c4h6b44!,d4h6ic646646666ge64b6",
"4g4cede4b646666:!gd646464b34h4b6beg6464b6c6!!664h46636664b4c264b64cc2c666:b3e36i][tdcbe44h6eb63d]64b4c4b66!1g44466d346646d6d6h4d",
"dedgbmdheh4h4663!md6d3d664b646cd4h4bgcc6606!=!3[26b646b536666F:66b66d:0:b346246]=2Aed67hc640ce46cidc4b4c6!94gh4h66c6b6b2ehc464c6",
"6bgggebeyeb4634!~gei4c4j43e6b646c6dc4b664[41~%~=a>)![16![!!!226:32[2[2[:16:13:9~>!rgh6e6de63666b5646bj44d[!66dc76676643c464h4beg",
"ggdegbgbceb:b46[]hd:g266d66b46cb6g6bh446666)a=3]c!1!3!2][2!!):!!][!!)9~9=>~)>~>%>2ge4b4h6b2664h66b464d6b2!~6g46666h43666d6d66426",
"4hqbgged6g66666!!4g6d6c266466h7644e46en63:!9=94Agtedg4hdgg4h7bcb4b4b66][![1666)1apgbe6g2e6c:064:behbc64e6[!6dcdc4b:64cd6eb4bceb4",
"hedggdh4g646b421[6g6cb]66b34666c6h6bc64h8b:!a:btbgb66566g6gghed4dg6g643y6deg64b!=2ge0ebeb46b466d346e4d6661!h4h4b6c4b666b4j64eb6g",
"4ggh4g4gh66be66!!dg666F5bf466664d6d44436662!~6b4h44ei6d646dcd6h66646d66666db64c[~:Cg64c6e26cdc666c06b66de)!1tbe66664e]b4h7c606e6",
"hdgegdcg6d664661:h46g76634b6462h6gc6h646b6]l!6eg4g6e664664hg6eg64g6c4346bc46c62[>bed4hy66h46646432c44g66b!!64h42cd6b6dc4666bed6d",
"ggcgdgd46e3d663)1ed666c4b46cb6c7464b663646b!!gdcbeb6bc6gdcdcdbg4h6g466664g6b4d6:~[gg66e6b66g2h6b5636c66e6!!6gdc4b6c2c6dc664e6c6g",
"c4dgcgcd66646g]!34h4g6b4j662b66hcd6c!646:b:!!ghgdc6d:b4ch6ded4bcdh66bc2ecb4e6c62!2gb4g66446b6466324b6d6b2[~6dc62c46h6466b6b6h44g",
"dggbgeb666ie66b!6g6664b744he646e64b6d636662!!gg7h4g:6]b6d6e66e4dc7g664b6be6b42b<a]hebeb6ch2c666646[66c2e6)14bed364b4beb466646b6d",
"gbeehd6464:dc43]6g4dg366cb62g]h6b46636]6b:[=3mb64g6b36666g4bcdh6gc4b4662edcg6e61>64d646d6662664316b]6d462[~j4bc4eb66666666ehde4h",
"egdged4h663dcb6[1dh644g6464b636c4be6463662!=2eg4h6:b6:dc4c4d6eb4c4beg6ccbe26d6g:![gcb4c4b66]6262:1:b6c663![dg4666444h4664b64cbhd",
"h4hhdgc4364g642!6ed6h643b6g6644bdc2c264466196gg64b66[2434b666bedcd366g644b4h466!9ddc46db44363663666664d67![dbc4bebcb6d66664b2ede",
"4b4g4hd66634b63:26g646d44c46cb664c4b66666:6!6ebebE0:2b6646h4c4he1664h46b6c434b6][2cb46c6e6d6:[6462346c6c3!!eg64b4cde6e6cbe64c4cb",
"gcg6gm463046e66)6g6ebc66h46d6364g666666663]!6g4666166[66cb662h64346b44b4gb4cb:61!ed5b66436646266[464b4b!2![6gb46c46g66b7666dhd64",
"444hdhg66636662[14g644b66eb466d66d66634[y:!!bdh4g64:0646b:dc6]d6666egbfh464i536![7h6b4h666beb436b:bch6:d6~!dh4h4bg64h4c66bc6c4b6",
"b6beded46]61666!:b4bc6cb4be666ebe6d3466661]!4geb6432c6:i:646436c64ghdcd4d64606!=34h4c646b664c676666ed:643!:6g46e66eb4b6b46646dc4",
"eg4hhdcb66[2637!!beb4b74c646666d6664:i6236!!bgd6e6g62664d3c2b446b6g6gdcbce36c7[~6246b666466e0e3:2:b46b266~!6g6b4bdc4g666664h46eb",
"46bdgeg461:266[!2e6e66h6h6b4i664h463426653!l4g6eb62:664i:d6e6bc46cgg6ge64beb466l6dcc6e66b64b6b46666d66666![d4b4c4cb4666bc6b46b46",
"h4ecgbg6663]341![be2g46444c674c4b6b6234162{!6r6d6e6b66644h4d6e6d3yeh446d6666c41!:b60664be6c4c43632c2j6:b6=!6c64b6646h4644dc4h4h4",
"4bebde43:266:23!26dc6g6h6b62j6d6665366:66[9!be66eb4c6:b4h4beb4b64hg4bbeh466d2b6[24e664i664b6b]6]666626736![b4eb666643666666b4c7h",
"deb434b6632:n6:![7c7b64g64c6:bj463666:1b:2!~6gd66d6666h6dc46gc4664g6gc4343dfc62[1b64be64h46663366466e6666!!6b66636b644bc4dec6be6",
"66666666]23::23]36g6e46646b6b8632626146432[!6466dc6b46ed:dc64b666h4b4b66be6b7b:=646666g64b6[6]64b64d6666:~!66b:6444ebceb4c6dbeb4",
"6616666666:0:62!!b4b6j6g666666666664666666!~3g6646b46d66b46b46664b4c66437c66c6]D:64bc64h46666:b646c34i6!6!)i46663h6d6e0g6hd6ec6b",
"6642c664362:2369]64662660c646666666:36462[!!e646be4c66d6e646h6666e3b5n:666b4643)66h64b6646660c46c6b4c4466~=64666666cd6646466b626",
"63666266673644:~l34h66:b:66b63:d6666:b3c46!!n4cb6b6b6c66b3h46666366:1fb6664b6d!!23d6c44cb664c6b6b4c266[!1!a346de2b666gcbcb666626",
"22[]!:[2!<!a!!!~!632b6464346!!2664b:i:2]b[!!:61:366666bc6566d66476cd4464663e463~[46666h264326156:1:0:!!61!=[6cb2e44e46426:616:36",
")~=a)a~>!~~!>!a>=~)[61[1[22[~!)3![!]!]!,!~~>~9/!=)![]6]]b3h!e6bc3666666262![![~>!61:i2:b66236:16]3![!1]![=>~!![3!331![[[!~[]!~!=",
"b[[!a~)16[c61!=9=9~=9)!~![!!)~~,~~9~!!,!~9=!!>!,~a)~~9=a!~!!![!!!!!!!a~,!,~!~=~>a=!~)!!a)[!=!!!9!=~a~!!!~>,a=~=a!>~)a=;~!:23[6:b",
"edre:1egd46463!>!)!b:0:6661:if62666:2606:3664F563666G:3[)!:~a=~!!]!~[1[236632[6!3![![![]9~>9~>=~,!![)~!!=3]63[66:b]3!!a)bggedgge",
"egdhebgd6cdc44!)!bgededmdggdgbebeedhgge4h4h464bgde6d4646d6b[~![h4rmdeggedeg4ggA4ged3y[262[~=[66hdg4hdc63b4dc7bede4h443!bgerdg4rg",
"dcg4gg6gcdc4b6!a!4rercdgcdc4g4bebcb466bd466dcec7che6ggdg4g46a]ggdgdhdeg6gh4h6d6d46644b6463)[dmBgheb4e6646cbc46c4b4cd6]!1mB6c4h4h",
"g6gbeb4h4g6h66[~3emg646646d646464464c4e63e6604b6d6d4hdcdhe3:a2mg4gcdch46d464646b6d4b6:b64:o1u4h6gd66b66344b:6d6dc6g63!94gg64b64g",
"4e6d464664b4d6!!]hdgcdhe6e66h46b6b66b6b64b6e6cggedhdebeh7d46)!gdhdegdg6becbeb6e4cc6eb46cb3]6g4d463h46664b3626664b4d46[!4h46dc4bg",
"bcd6dcbe6dc666=96gd64c4bb7hed6cd[46h646b6466db4d6b4dcgdhc6611[4ggcgdcdhdebebeg6cyh64cd6262!3d66c444664h466:6bcdc6664[~[6g4h4cdme",
"4d6he64b6e6deb9)24mgb6g64h466e04h6446e646cb66eh6ecg6degd6e62)6rcggggg4gcdgdcg24be4d6c66e6:!6eg666b66c2bce266646b6h4b1!14ghcd6dhd",
"66e643b4h2gc43[~:gb6e466464cbecd:b6c6b6b3466dc4cyc4hhgdc6616!3dgg4gh4h4bgbeg2h4c6c64b46b:6~3g266c6:b]h6406626c6646b66!:hged64cde"};
