/* XPM */
static char * zelda_east_west_xpm[] = {
/* columns rows colors chars-per-pixel */
"128 128 82 1",
" 	c #62624E",
".	c #624E3B",
"+	c #76624E",
"@	c #624E4E",
"#	c #62623B",
"$	c #4E3B3B",
"%	c #4E3B27",
"&	c #4E4E3B",
"*	c #623B3B",
"=	c #4E4E4E",
"-	c #897662",
";	c #76764E",
">	c #766262",
",	c #3B3B27",
"'	c #89624E",
")	c #89764E",
"!	c #76623B",
"~	c #767662",
"{	c #896262",
"]	c #9D7662",
"^	c #9D764E",
"/	c #898962",
"(	c #9D8962",
"_	c #9D7676",
":	c #764E4E",
"<	c #764E3B",
"[	c #623B4E",
"}	c #624E27",
"|	c #624E62",
"1	c #3B273B",
"2	c #3B3B3B",
"3	c #3B2727",
"4	c #141414",
"5	c #141400",
"6	c #140000",
"7	c #3B4E3B",
"8	c #272727",
"9	c #626262",
"0	c #272714",
"a	c #271414",
"b	c #89894E",
"c	c #4E3B4E",
"d	c #3B3B14",
"e	c #4E4E27",
"f	c #3B2714",
"g	c #271400",
"h	c #270000",
"i	c #000000",
"j	c #272700",
"k	c #897676",
"l	c #898976",
"m	c #767676",
"n	c #768976",
"o	c #140014",
"p	c #9D8976",
"q	c #4E3B14",
"r	c #142714",
"s	c #4E2714",
"t	c #001414",
"u	c #4E2727",
"v	c #9D9D89",
"w	c #4E624E",
"x	c #B19D89",
"y	c #B19D9D",
"z	c #3B1414",
"A	c #9D8989",
"B	c #000014",
"C	c #623B27",
"D	c #9D9D76",
"E	c #001400",
"F	c #627662",
"G	c #273B27",
"H	c #3B4E27",
"I	c #C49D9D",
"J	c #C4B19D",
"K	c #B1B19D",
"L	c #62764E",
"M	c #768962",
"N	c #898989",
"O	c #B1B189",
"P	c #9D6262",
"Q	c #9D624E",
" .++@......#.@.#...#@..#..$%$%$%$%$%$%$%&%&%&%&%.&.*&.&..&.&..&.&..&.=.&&%&%&%&$..@......@......@......@.#...#@......@...#..@#..",
" @+++-+++ +++;++>;+ ++ +++++#&%&,&,&,&&.....+'++++++++++++++++++)>+ + +++..%%..!.@#++++~';';{;{;'~'~{~{;)+-;-+;)--)>)++@ @. .. .",
" .+++]--)-)--)-)-)-))-)--)-)++#&$%%$&.+)----)-)--)-)])-)-^-)-)--]/]]-]-]/-+. .@++)--)--)----)-)-----------)-)---)--)--))+#.# +++",
"@.@++-(]-)--)--)-)---)-)-)----++..&.!+'-)-^){){-)])--)--)--)]-)--]/]/(-(_-+.@#. +')-)-)-)/))/-)/--/--/--)-)--)-)-)-)-)--+++@+++.",
" @+@+]-(-]]]]]-]-)-)--)-)-)-)--)@..@ +)')'+-)')'--)-)-)--)--)-)-)--)-'----+ :+ : +{--)--){--)--)-)-)-)-)--)-)-)-)-)--)])-+++++'&",
" . .+-(-(--/-/(--)])-)-)---)-)-' ...<++)+)')+)+)))--)--^{)-'-){])-){-)-)--+.  : ! !+){]'-)-){)){-){-'-'--)-)--)--)--)-)-;>+>'-+.",
" [.@ ]-]-)](]]-)/-)-)]--)^--^-)+@..@++){)~';{))>){)'-';'--)-){)-'-)-){]){+  : @+:+ :!++){-){--{)--)-]){''''{){'''-)-])-'>;---)+.",
" . ..-(-(--)-/-]-)-)--))---)--+.$$.@!++)++++++ +@ @ @ : ..@.. ..@@@@++++~+@*&..  !+# ......#..#@.@@.@@@ @  @ :  +++!++++)--])-+.",
" $. .(-(])-+...#.. ..#.@!@!@+@+@&$&@@+ @++ +..@.#..#.@#@#@#@ .  ! : @+ :+. .@.+: @:@+@ @ @@.@#@. . . .#@#@.#+ !@ #: @#@#-](--)+.",
"+&#..--]--) #. .. .. .@#@ : @! @.&.@#: < @< @+ : + @@#@. .@#.@..@@+.+.:  @.$$&@ !:# .+@!@! ++@+: .@#@#@#@. :#@+ :+  .@#.-]/])- .",
" $@#@(]/])-:... ..#@.#.@!@+.+@+.&$$.@ : :  : .+@ :#+ + + + + + + !@+@ +...$%%$..@ :+@ !@ :@#@+. ! + +@ + + + +# # :+&.. -(-]-)+.",
"+&..#-]/]-)+.&&&&.&.&&&.&@&@&&&&$$&&.&&&&}*&.*&...&.&%&$&$&$&$&$&$&&&$&&$$,$$&&$&&&&&&$&&&&.$&&&$&$&$&&$&$&$&$&$.$& &@#.-]-()-+.",
" $#@.-(-(-);@+ : + + + + + @+|+@   > + ++  +  +   +@+ + + + + ++ + :+ +@+ + + :++@+@+: +@@ @ @@ : : : : :#:#: < : : *#.@/]/]-)+ ",
"+&@#./]-])-+#1,222$22$22$22$2$=@ =3456432&$$$2$2%22$2232,$,$,$,2$2$2$,$2$22$2$222$2$,2$2,2,,,$2$2&$$7$$$2&$&$&$2,38 &@#.-(-]--;.",
" $..@-]/---+.22$%2$$$,$$$&%&$&@ 9.$05603&&&&&&$$$$$&%$%$$2$$2$$$&$&&&$&&$&&$&&$&$&$&$&$$&$$$$&&&&$&&&&&&&$&&&=&$238+$.. )]/])-+.",
"+& .#-)-]-)+.,$7$&&&&&&&&&&&&&  > @,aa0$@@=.=&&&&&&$&&7$&&&&&&&&&&=.=&&&&&&&&&&&&&&&&&&&&&&&&&&.=.=@&@&@&&=&=.=&2,3 &@#.-----)+.",
" ... )-b-)-+#$&$&&&&=&@&@@@&@.@ +> &30,&> @@@.=.=.=&@&.&&.&.&&&.=.@&@.@@.=.@@@@@@.@@@@@@@@&@@=@@@ .@@&@&@.&@.=&&$,8+&.. )-^-)-+#",
"+& ..--)-)-)@7$&&c&@@.@ @#@ @ =@ ~~ ,3,@~>    @ @ @#@@@@@@@@@@@@.@@#@@#=@.@ @#   @      #@ @ . @#@ @  .@&@&@&@@=&2, .#@.)/)-)-;.",
" ... )-)-)-+.&=&&&@@            +>- $d$.;> +   @   @               @       @       @ @ @            @@  @.@&@ @&&$3 ... -)-)--+.",
" &#@.)-^--)+.&$=@&@ +9++ >++++++ >~+$,2.9;>+>+ +++++ + +  @ + + + + + + + +  +>++++++++++>+++>+++ +@   . @ @#@ @&22 & ..)-)--)+.",
"+$.#@-)-)--+.&&@&@  +>+9+> >~>~>+>~+&$e@~>~>;>>~>~>~>++ ++++>+>>>>>~>>+>++9++>+>>>9~>~~>~+>~>+>9>++ + +   . @  @.$,+$. .---)-)+.",
" &@..)-)--)!@$&=.@@+ >~+>;>+ @  ~;>+ .. ~-~~~+ #@#@.  +>>+> + +   #  +9+ >++ +~~;~+~+++ + + + +++~+>++ ++  @  @ &$2 &...)-^-)-+.",
" ..#@---)--+.&=@   +~>;>~~+ %,%+>-~> . >----->.%3d3d$. ~+~  @.&.%%%%$#+> ++9+~>+>;>; @ @ @  @  +~>;>~>>+ +@ +  @=&,+&@#@-)-)-)+.",
"+&#@#-))-))+.&&@&@ +>~>~-~ %faf% >+..&.++~>~>.,055g50%&&.&.%,f,300a0f,&&&$&$&.+ >++@&%,,%,%%%%$&&@. +>;>> +   @ &$$ .#@#)-)---+.",
" @@#:)--)--+.&=.   >~;~>-~.300g0,&%&,3f,&.&.&f0gg65hga0f0fa0ggg5g65ggag0g454f,$.  .$f0gagg00f0fff,,%. ~~++ +@+ @&&2 @@.+--)-))+#",
"@. : --^--)+&$&=@ >+~>-~-~$0ffagg00a00g0ffff0agga0f0000ga0g000f0ff0f00af05i65g0,%%,0g65655gaja5g5gaf,&@++>+ + + @&$@. +@-)-)--+.",
" @@!@)-)-)]+&$&@.  >~->~--%0f,fa56g6g6gaa0ag0000f%$%%$%&%%$%@+ +  +@.....%05665ga0ggg566gaf0ffa5g5g5gf,.>;>>+9  @&2+@@< )---)]+&",
":&+@+--)--)+%&=&@ ++;>-~-~&d$.&%ff00f0ff0f00f%&$. ;+++++++ +-klkk-k-~>~~~ .3g0g565655ga0,%e$&%f00ag5g5a% >~~~>+ @&$ .  :--))-)+%",
" &@ .-)-)-' %$&@  9>~~+~--@. ++  @#: .&&&$e$. ++~>~~~~-~~~-~-----/-~+;>->- .%,,fg565ga,.   +  &%f00a0g5f#~--~>  @&2@&:#@)]---' %",
"+$+:+-)--)+&$&&&@ +>+~~{~> +;m-k--k/-->++~++>-lkl--k-kk/kk-k~-~-~m--~ ..&. .@ .&3055g% ~-{~>->+.&%%%%0ga,+kk~~> @&2+&+@+-)-))+&$",
" = #:+)-]+#$%&=@@ ++~>-~++ +>-~-~-~~~-~---~-~-----k--/-k-/-/k-~---lk-.f44afe +>+.&a50@+~+~++~++ +@ .$d05a&/k~+> @&$ $ +@+)-]+#$%",
"+$.@.@+')+&%$$&&@  >+~-~ .$&+~-~-~--~-kllkllk/k-k~-~-m-~--m-~~-~~~+ @,5iii60%@~-~+%g3+-;>+>~+~~>~~~>#$,gg&-k-~> @&2+&@.@.++)+&%$",
" $&.&$@ @.&%7&=.  +9;>~+@%f,.--k-k-k-k/k-/k-l--n-l-l---k~--~>++~-@da46iiiii44%#+~>&f,@~>~~;>-~>-~'+++@&fa&kl~~+  $$ $&.&$@+@.$e2",
" $$&$$....%$%$&@@@ +>~->.,g0.~kllll-l-l-lk-l-l-k/-k--~~--~k-+ &.&%5iiii4g4iii4% -- $% +)~{~-~~-+~~~+~+.,,.~--~~>@&$ $$&$$...&%$%",
"+&$@&....&2%&&=.  +9+~~;&ag0.k/l_/k-l-k/k/k-k-k/k-/m-k-l-k/k- %a4oii50f8ff0g6i4 k- .#+~>~~->;{~~-++>+ &%%@~-~>>  &$ &$@&.....,&%",
" =.@@.@.@.&,$&&@@  +>~>+%0g0%+>-~~-l-k/k-k-l-l/k/kl-l-~>~~+  $giii64ff,%,%,fai6$+~~+>~~->-+~-~~->~+>;@.$& ++>>;>@&2+&.@.@@.@.&,$",
" .@#++@!@!$%$&= @ +>;>;@,ag00,&..+-lk/k-l/k/klklkllpll-#.@e305iiig03f,3,,3,%d564%+-~>->;~~~{~+-+~~+~+ .e$. > ;9  &$ =@ +!@+.+$%&",
" &@+@+++++#&%=&@@  +>~+.,f0f0f%.& -k/k-l--k---;>;++++@&3,306iii5af,%,3q3df,,%3565&>~-;~{~'~~{~~~{~+>+.,%&.  + + @&$ .@!@+++++#&%",
"+$+@#')';'+.$&@ @ +9~~+&%f%$%$&@ >-l-k/k/k/k;@&.$,f,fr4454iii503,d%,,f,f3,s%$%ftia%--~-~>~>)~>-+~~++ ,af$. + >  @&2+&@+@)';''+.2",
" & : ';)'-).$&.&@  +;>+@%$.   ++~---l-l-kl-~.3g0a566iiiiiii5af%%,u,3,%3,,%,,,$,5iij ~{~>;>;>~+~~{~> %a50.  + + @@&$ ..+@;')))-.%",
" * .++){;)-.e== @ +>>~+ .& +>-~--klk-k-l-l- ,4iiiiii666666a03,,%,3d3q,%,%%%%%%,gii4%+;>;++~>)~+~;> e3gg% >>>+ @ @=&+&@ <;'~'-).&",
" . : ++)'--.$&.@ @  ;>~~~+++~-klll-l/k/k-l-%a5i565454jaj5gf,,%%$.... @ ..$%,3,30giia, +>+>++~>~>+ .%0g0&>-;>+     @ *+: +))'--.%",
" *.+ ')';-^.&.=@#@ >>;-k-~  ~-/k--l-k/k--l-,5a38f8f8ffff0f0ff,% -vpppvpp~.,fd3q305iia%+~;+~>;>)+ $%f30g%+~>;9@ @ @= .@#:+)+)-)<&",
" .@+@+~'){-!$&@w@  ++>-lpk+@+-k-lkl-l-k/kp~%5fe%%%%%,,,2%%%$&@ -vxvvxyxvk~.$%,,%,z5ii0,. +~+~>~+@e$e%3f&+~;>++@  @& . : +~'){-#$",
" .@#@+))+-)+$&@. @ >~~~-ll+ +k/l-/k-l-l-kl-$03%,,,,%3f%&.& --ppAlklplplp-pl~$,f3,f066B40*~->;+~>++ .&%$&+>>+   + =,@.. .+)';-)+C",
" .@+.++)')-+.&= @  ++~>-lp~@;-k-kk/k/k~--l-.,%,,%,u,,$.++>-pvvxD--~--l--kvv-.%,f,%305ii60. +>+>;~>~+@.# >+~+>  @.,a .@+@+;')']+&",
" *#@.+;'~-'+%=.@ @ >>;>-l_+ +k/l/kl-k/kl-l-+&%,u,%f,.+l~-~llpllk-~-klklk/pl>#.$%f3d,f6iio0$+;~->+~+ .&+++~+> +@&3a5 * ..+'~'--+%",
" . +@ {)')]+.&@&@  +;>~-kl+ +~-k-l-k/k---k~>&%u,,,3,.lplllk-~---~---;~--k-~++~ $d3%%fa5Ei60%&.  +;>+& >~>+F++ @$,a4 .@+@ ;')-)'&",
" .@!. '-)--+.$& @ +>~~~---+ +~kl-l-lk/k~k/- %,,%3%d%@-l------~~-k-k .@-/~>+~~p-&f,%3f0fa5ii4a0%. >~ ..>;>++ 9 @&$,3 . +. '-)-)+.",
"@.   @;)--)'&&=&@ 9;>>-~k~+@+~--lk/k/k-/-k-&fu,%,d$.+-k-k-l-> .@& .$0f&@ +>~-Ap+.&%Gff,30iiii65,.~+ ..~~;> ++@ &&&$ .. .++)---+.",
" .@..+'-)-)+.$&@  +>~~---~+ +-kl-l-k/k~-kl~$0f%,3f&+m-~-~kl-+%300044i5a,% ;--kll- %f03fff04iii6a.~+@. >->+ +  .@&$2 . @#@)-)-)'&",
"@&+#@ +-)--+.$&&.@ >;>~~-~+ ~k/-lk/k-l-~--~%gf,%d3&-ll---~> ,06i6iiiiii60$:~~~-pp~@,f0ff,fa5a5i0.>+.&.++~+9+  @&&$2+&+.@++--)-+.",
" . @.+'--)-'&,$$&&@+~->~-~+@+~kl-k/k/-k-k~ 3j3%,3d.~k--m~!%a4iii66i530ii60&+--~-ll-&,ff8ffff0f0f&++ &. +>++  @@&&$, $ . @)-)--'&",
" $#@#@;-)-)+.83,,$ ~>~~;>+ #~--/k/k/kk~/-+.f03,%,u&-l-l-+,4ii5i54ga0%d45i5f.k-~>-p-@%f0ff0f,,,%$ + @.&. ;>+ + .@&$2:&+ . '-)-)+.",
" .@#@++-)]-'.a03%=++~->>+ @@+-kl-lk-l--k~ %,,%,%,%@-k-l-$4iia833d3f,,3f3054&--~~~-~.,f000f3ff3& +  .&$.@   +@ @&&$, &.@.++--)]+.",
"@&+@.@')--)+&0,&=+>~+>~~+.. ~-l-lk-l-k-lk.f3%%,3%&#~~-k-H664fe%%,%,%,%,%%aa&k-~+~>+&,f0ff0f,,%.++ +@.%&. ++   @.&$2+$+ . ')-)-+.",
" $#@##--)--).2@ ~-~>;~{+ &. {l-l-/k/k/-l/&0f,%,%%. ++-l~.0003,,f,3%,u,,,,3, ~~+>+~ %3ff0f0ff$ +  + .&%$. + +@ .=&$, & .@.--)-)'&",
"@&+#@.){)-)+.&9~~k~>+~~>#$. ~kl-kkl-k-lk-%g0,%%,&@ @+~k~.3f%e... .%%,u,s,%.++>;>++.30f0f0f0,.+ +@+ .$,%. > +  @&&$2+$+. .){)--;.",
" &@@#@-)-)-'&@ >> ++>~>;@&&:;l-l/-k/kl-- 3g0%,%3% +  ---&f,$ -lvvk %,d,3,%. ~>+~+ %0g0f0f0f%&+  + +@.&%&++  @ .@&$, &@#@.-)-)]+.",
"+$+#@.){)--+.&@@@   ~+-~... ~_l-lk/k-l-~.30f,%,%%&. +~k- %.+-pxIJD>&%33%,,&@-;>+ &fgg03f0f3$.@ : @ #.$%&@ + + @&&2$@. . .)-{)-+.",
"@& .@#{-)])).= & @+>+~>++@. --lk-l-l-l-~.%33%,%$,f%@---~+>lplklpll+&%d,%fff.~~+~@%05af0fa0,&. +# +@ .e,%@ + @@.=&$, $+.@.-)--))&",
"+&. ..-)-)-+.=@=.   ~>~~+ .@~l-l-l-k-l-~@e,,%,%%f5a% ~~-~-pvpk-lk-+%,33%,0a&>~+>#3ggg0f00f%. +@ @+# @%3%&: +  @.&%2+& . .){-)-+.",
"@&+. .){-)-+.. .= +>+~+~+ . --l-k/k/kl->.%3f,%$&35i43 -k-~kl-l/lp-&%,%,%3g5,++~~.05a0ff0ff,&. #:  @+ &,%. + @ .=&$, $+. .-)-)-'.",
" &@ @.--)-];.== @@ +~>~+  .+~kk/kl-k/kl- .%,%,,,f4ii6,.~--~~k--~>@,f3,f,,ag0% {~.a5gf0af03%..@@  +@+ .3,&@+ + @.&$2+&@ .@){)]-;.",
"@..+. '-']-).&@.  +9+~++@.@ --l-k-l--lplk~.$,fff30gEi48.~k---~+$045ad%,udf0gf&;>.0g0f0f0ff,&. !@+ #+ .d3e@ +@ .=&$, $+. @)---])&",
" & : @-)-/]~.=w@ @ ;>~>  ..+~-l-l--l-kpppl~+@&%,,%,aii53.;l-- %4ii5f,3,f,3,03.>~.ag0ff0f0f%&.@ + +@+ *,f%. +  @.&$2:& @+@){)](+@",
"@.@#:.-'-](+.=. @ +>;>;+..  >-l-k/k-kllpplkDxk+.$.%fg5i58@-l~$0iigf,ud3,f%%.. +~.0g0f0f0f3$.  +@+ @ +&3f,&+ @ .=&$, &<+@.-)-]-+.",
" $ : @)-)-] @&@@  9+>~> .=.+-/k-l-k/-lpplppyKxk~+  %3f6i5,.@%0ii50%%,f,f%& >~>++$0g03ff0fd&  : + + + .,0f&>+  @&&$2+$ @  '---( .",
" .. : -{-](+&=@ @ ++~~+.&. >~k/k-l-k-llplplDApl--l+&e%056o4r4i65f%,,fff3%>l-++ &fagff0f0f3$! + + +@+ .3f3.+ +@.@&$, &:!@+-)'(]+=",
"@&@+.+-))-] ..&@ +9+>- @. +---k-l-k/-klAplpplllplpl>@&%f5iiii45f$@&*&$&. -p-+;@,jg00f30f3d&@ + ++ + +.,f,&+>@ @&&$2:&@ @+'---/+.",
" .@+@+){-]/+@=@   +>~~+.@+~-m/k/k-/m-lpplpAlpl_llpl-+&$%0565a3f% ++~-l-llk~~>~@fg5af3ff3f,. + + ++ + .%3f&>   .&&$, &:!@+-){]]+=",
"@&.  '---(] .&=@ +9+~- . ~-l--l-k/k-k-llpll_lk/-k-lp~.$&u0g0%&. -l-lpvAvp-+ ++ fga0f0f0f,u&@+ ++>+ ++@&,,.++ @@&$&2:&.+ {)---( .",
" $.+:;{--(p+&&   9+~~- . kl-lk--l--/----~--~---k/-k-~.&%,f3f%&+-ppk-----k~~+ +@fgf,f,f3f0fe@++> +>+>; $%.@+ + .&&$, $@ <;{-](p+&",
" $..@++)---.%=@@+ +>>- @+(lk/k/k-~k~lk-~-~-~-~-~-~--~@%f,,%%&+~lAl-~~~~~;~>+ .,a53%,f3df03%  >+++~+~>+&.  >  @@&&&$ %..@++----.%",
" $$&.@ ++++.&.@ 9+>~~- @+kl-lk-/k/-kk/k-k-k-k/k--~k-~.,3f,,.~pk-l-k-~{~{~-;> %0i53,f3f8fff$ +;>L>+~+~ $.+++  .&&c&2+$$&@. + ++.&",
" $%$..@ @..%$&@    ;>~~+~/pk/k/k-kk~+   @   +>~k-k--~+ .e$.>ppl~-~-~-~~-~-- %aii53%d,fdf3d& +>+>+~+~>.e@~~++ @=.&$2 $%$.. @ ..%%",
" $%&.& : @ %&&@ @+>>~---klk/k/k-Ml/+&a5454a0%.+/ll~-kppl~+-pll----k-~->-~p~$4Ei60f,3f0303,.+>;>;>;>++.& >~+ @#.&$&,@&%$.&@+@ @e&",
" .$&@.:  !..%=@ @  ++>-ll--k/k-k-k-+,a46iiiig0, >+~-lvvxlkpvl--kk-~-~--~+>.4ii5af,%d,,3,e. >;>+~+~~ .&*#+> + @@&&$,+&$&@.@+ <..%",
"@&..@  : .@#$.w@ @ +~~k--~llk/k/k-+ ..@&306iii4f%.>-l-kk--~k-k/-Mk/k-l-~.,4ii65f,%33,%%%@-~+>;>;>~{+&$&.>++ @ &&$2,@... @+ @#@.&",
"+$@ +: !@++..=.@@  +>~-l->~--l--l~+ +~l- .%04ii650&+-~-~~~-~~~~-~--~+ @&06ii5af,%%,f,%&.~--~~+~>+~~+.e&. + + @@.&$, $@ :+#@++!@.",
" &< @! : ++..&=#@ +>~-lpk;++~k-k--~-~k--~-k 306ii4a&+-~+~+>++++>+~~@daa4ii5a,,,%,,f3ff$+~~~+>~+~~+~+&..&. +    @&,1+&.+ +++.++..",
":&@+@++!+'-.@&&=@ 9+~>lpl>. >/kM-lk-k-llpvxl+%g4ii60$ +~{~~~++  @..35iiiEaad%%u,%%,%,,.-~->~+~{;>-> @.&.&@ + : @&$,@&+@.+.++-)@.",
" &:#:#+@))-+.&@@#@+~>~-A/+@#>l-k---l-l-k-lppl.,,f45i4f.---~>+>;+&f4iii6a3,,%3d,%$&$.. >~>;>)~>;~{~;+.&@.&@+ @  @&&2+$ : ++#')-+.",
":&@ @+#+--)+.=&=@  >+-lvk;@ >/k/k/m--l-ll-kDA+&&$fgii68. @++ &&$f46i450fe%%%&$.  ++ ~-~-~-~>;>->;>~>.$&&.+ +   .@&$@& . < +---+.",
" &< +.+'-)-+.&@.  +>~~-pp- ++k/k-k--~k/k-l-ll- *%e35ii540fe.3444E5a033,%%,%&+~-klk-~>-~>;>~{~;>;>;-+&d%. >+ @+@ =.& .@+:#@'-))+.",
"@&@+@. -)-)+@&&=@  >;>lNpl+@~/k--/-l--kll-lk--~.&&%fa4iii6005iii64d%%e%%&$&+kpplppl--~~--->;~>~+ @ &3f,.>~ + @   @= $ . .+-)--+.",
" .@#@.+){--'.&@@#@+~>---lk+ +k/km-m--l/k-l-l--~+ %,,,,05iiioi6400f3,%,3& ++-lk~-~~-~~{~-~>;{~+++.%,f0f$ +>+ @  + @@+&: @.+)-)-+@",
"@&.+@#'--)-).=&=@ 9+~~~-k-+ ~/k-/k-/k-k/k/k-k-~-- ...euf4o5i54f%u,f,&.@+-~~kl-+>+>;>-~-~~-~~-~+ &%g6g,.>+~++++9+9 =@&.+.#'-'--).",
" &: ..-)'-))@$&@  +>~{-l~+ @--k/--m---l-k--/~~-klpk+.,,,f,33f,,,,f,%@-DApk~--~~~-~{~->~{-~{;>~+++&f56f ~++~~~>>> @& &: @.-)-)-)@",
"@&.+@.'----+.&&&@@ +~~-~+. +~/k-m-/k-m----~k-~-lpAvl>.%%%%%e%%%,%3,.-vxvp/>;>-~-~-~-~~-~~-~~->~>>@&f0%+~+>>-k~+ &&$@&@!@.){-)-).",
"@&@ . )-))/)@$&@  +>~-~>.&@-k----~-~/--m-k--~-~-llppp~.,,$e2,,3%f,% lplk-~-~-~-~-~-~--~--~{~+~+~;~+&%&+>+~~~+~ $$,3 &@ .@)-)--)@",
"@&@+@.-'---).&=&@ +>~-+ %&+lk/kn-~k-k~k-/~-m--~---lpAl>&%%,%%%%,,% -pl>;>~>-~-~---->-~-~~-~>-~->-+> @@+;+~+>+ @,3,,@&.+@.){-)-;.",
" &< ..-)-)-)@$&.@  ~-~+&&@;k/k----~-~-l-k~-~~>-~-k-l-/-~.,3%,,f,%@-pk-~>-;~>-~-~-~~-~-~{-~-;>;>~~+..++9+9+~~ @&$2&$@&: ..-)-)])@",
"@&@+@.){-)-;.$&=  +>~-@%%+-/k-l~k~-~-~-~~-~>-~-~-~-~>-lk+&%,,u,$.-Ap~>)~~{~-~---~-~-~-~-~->-~>-~+ &&+~+++~>~>.&&&&= &.+@ '-)--;.",
"@&@!@.-)-^-)@&&@@ >~-m.f,+~k-----~~~~-~>++~~+~--k-~-~+~-k+&ff,,./ll~~~>-~;>~-~~-~--~---~-~~>;-~++.&.>;> +~~++=&*&@$@&@+..-){)))@",
"@& @ .){)--).$&&@  >--=f$ --lkl~k--->+ . +--~-~k--~~+ +-ll>.&.:~Ap-+>)~>->-~--k--m--~-~-~---~+~> .&.+>;>++>~+@.&@&&@&#@ .'-----.",
"@&< .@-)---;@$&@@ +~~k#,%+kll-l-l-k-~.$e@+~-~--~-~~++ +~-pll-klpl-~~-~-~~;--kk-k-k-m--m--~-k->~+ .$& ~~> +>;  @&&&$ $+.@@-))--)@",
":& @#@){)---.$&&@ >~-/>.. ~-lpllkll~+e3,.>~--~-~-->+ @@+~/Axxvxv->~-~{~>->~-~-/~-~---~--~---~++++@#@+--~+++>+  @.=&:&  . '----~.",
"@&!@.@------.&&=  +~~k-~ @++kl_/p--+@$,%.+-m~-~k~-~+ . @+~pplppl-~-~>~-;-~>~~~>~~~~-k-k~k-m~+@ @ +>;~~-k~~>+  @@=&=@&:. .-){-])@",
" $ . @'))--;@$&.@ >>~-lAp~  ~----~ &%,d$ ~~--~-~--~+ @.. >~-lklk--~-~)>~>-;>++++ ++~~~>~~~++ # +~-l_lk---~~+>  # @&:&# .@'-)--~.",
"@. . .--{-]-.&$=  +~--AxxA).@+~>~@%3,ff&+-~>~{~-~~>+ .#@++~--l-/k-~>+~>;>;>++> @..@ + ! :  @ +>-pADppl-l-~>;+ @@@=& $+@#@-)---)@",
" $  .@'-)--;@$&.@ +>~~pvJKp~+ +;>#&%%$&+kl-k-/k-kl-~+ @  >+>-klplp-l-k/-k-k-~~~+  + @+@  :#+~-lpvDApAl--~-~+>>   .=:& #@@'-)---.",
"@. . @;-)---.&=@ @ ~-klpvKyAl-~--~+++~lpvpvpvAvvxpAl-+ +++ +~lpAvxvAvvAvvvvpppll-->+;>+++;>-kpvAplkl/k-k-~+> + @@=& $+. .~-'---.",
"@&@ .@+{---)@$&&@ +>~-~kpxJOvppNppAvpxyxxxxvxvxAvxvplk--~k--lppvxvxxvxxvxxxvADAxvpplpllplllpvvvpk-~-~-~-~~9+>    .=:& @.@+)----.",
"@.#. @))---).&=@   >~~-llpvyxvyOyKxyKxvxvvAvppplplpkpvvvxvvvxyxvppplpkl_llppvvxxyvxvxxvxxxxvApp-~~~>-~~~>+++ +@ @=&@&:# @'--)-).",
".&: .++{))-; $&&@@ >+~-k-klDAvxyxvyxxxvAvAlppl------lpAvpvpAxvAl-kk----~--klplppvvvxvvxvvvAppl-~~+~+~+>+++  >    @&<& @. +'-)-; ",
"@& @. '---^).&&@@  +>~~--~kkllkllllllllpl-l-k-m-~k~-~~-~~>~~-l-~~~~~~~~-~~-~-k~k--k-k-k-k--~~>~>+>+~+>++9 + +  @@&&@&! .++--)]).",
" *#+ @')-)-;@2$&&@@  >~~lkl----~-~->~-k-k--~~~-~~-~~+ @.@.@+ ++>+>+>+>~>~>~>>+>;>>+9+> >+> >+++;>;>+~+  ++   +  @=&:&@+@ '-)-)~.",
".& :#@--'--)#$&&&@# ++>-klplk~~>~>~~>~-~-~~>~-~~->~>+@  .& ~> > +> +~>;>++++~>;9+L>;>L>;9;+  > > + +  >  9+@@@ @@&$ &# #:)-{)-).",
"@.. + '-)-)-.22$&&=@ 9 ~-plk~++>;>->~~~k~~>~>>~>>~+>  ..&$.>;>++9;+9+>+> +9  + +9+  + + + > +        +   @    @ =&$.* :+ '-)--) ",
".& +. '-)--).2$&$&.=@ +9~lk~.& >+>+~>~->>>;>+~+> >>  .&$,$&  >F+9+9+~  +   +       @  @  @ @@ @@@@@@@@@@@#@@@@=.&$2 &.  @'-)-)).",
"@..+ ++-)-)-#2,2&$&.&@@+>~>.2,.9  >~+>~>; > > 9 >   @&$,3,%$ >+9+9+9 + 9 @ @@@@@@@@ @@ @@@ @ @.@#@  . & .@.w@ .=&&,@. :#++-)--)@",
"@& @!:;--)-)@,$,$2&&&&= 9+ $,3&  9 9 >  9  9  +    @@&,80a0$@       @ @ @ @&=.=.&.=.=@.= &@&@& =.  @=&.=&=&@@&=&$2,@&.+ ++--)--.",
"@&.+ +')-)--.2,22$2$$&&@ =&308$@@ @  @ @ @ @ @@@@@@&&$,a55a,&   @@ @@=@=.=&&&&&&&&&&&&=&&=&&&=&&&=  @@&@&&&&&&&$22,@. +.+)-)-)-.",
"@.  .+--)]))@,2%2%22$&=&@=,0a02&@=@&@==@&@=&=&=&=&=&$,304540$=@=&=@&&&&&&$&$2$2$2$$$&$&$&$&$&$$$$&=@&&=&$$2$2$2$,,3@&@ ++)-)]-)@",
"+&.+ +)-)--'....#@#.#.@#..&%$$e$e%&%$e%%&%&%.%&C&..$.&.$....&.&....&@&@.$e$e$e%&..@...@...@.@...@...@..@.#..#@#.@.@+$! #:-)-)-).",
" $+ <+)--)-)@;+++;++ +++++++#&$%2$%2%$&....<++++++++++++++++++++-++ + + +..%%..@.@#+ ++)>)+);+-;;{;>)>)+;{;)+)+)-)++&@+ +)--)-'@",
">&.  +)-)--;'--)--)-)-)-)-)-++.&&,e$&#+)----)-)-)-)-)-)-)-)-)])--]/]-]-]]-+@. .++))--)--)-)---)----------)------)-->+++@+)-)--;.",
"+$+ < '-)]-'-)--)-)-)-)--)-)-))+..&.!+')-)){-){-)]-)]-)]-)--)-)-(-(-(]/(l-+.#:.++'--)-)-)--)-)-----/---/--)-b-)--)-)-)-)+'-)])+@",
"+&@+ +))-)-]/]-]-)-)--)-)-)----'@...@+;')'')')'))-)--)--)-)-)--)-)--)-'---+ :    +'^--)--)-)-)-)-)-)-)--)-)-)-)-)-)-)--)~+;{)-+.",
" $ .++>---]/](-)--)-)--)---))--) ..@++'-+)~';';{-)-)-)-)-{)-{)-'-{){)-)---+@ : <+  +'-P)--)--^-)-]'--'-'-)-{)--)--)]-)]){+++++..",
"+&.@+>;+--(-(-]/])--)])--))]--)+@...<++)))')){))'~')'-''-)])-Q--)-)--'--'+ :# : +:! +++{'^{-'-'-{)-'-)-''{')'-'''))-)-))~+>+++  ",
" $..@+--]-]--]-)-)-)-)-)]--)-)+.$$.@++)+>++++  @ : @ @  ..@..#..@@@@+++'~+@&..@+#++...#.#@#.. .. @@ @@@  @ : :  +++++++++>++>;'+",
"@&$. +@..#.#.#.#. ..#@.. .+@+@+@&$@. @+@+ + @..@#.#.@#.. . . @@ .++.+@+ :#@..@.+@ : +@ @.@. .@#@.@#.@#..@#.. ! +@  : #@ ++ @+>++",
" $.@ .@ .. .@. .@.#@.#. : :#@+@..&&@+. :#:@! ++ : @ .@ @. .@#.#@+@ : .+@+@.$$&@ :#@+@!@ + : : : #@. . @#@# + @+.+#+#+@+ :...@ ++",
" &.+:++.#@.#.#..#.@#.@#.@#: :#+@&$$..++ :#@ :@@< +#+ +#+ + + + +@#:#: : .&$,%$..: :#: @+.@+. :#: + + ! + : : ! + @+@ + ! @&&..@@",
"@.@&.&.&$&&$&&&&.&.&&.&..@&.&=$&$$&&=$&$...*&..&.&.&$&$&$&$&$&$&&&&&&&&$%$%$&&&&&&&&&&&$&&&&&&&$&$&$&$&$&&&&$&$&&&$&e$&$&$$$$&..",
" @@ > @> ++ +@+@+ + + +   +9@+ +   + + +    +   + : ++ + + + + : :+@+@+ +  + : :+@+@+@++@ @@@@@  :+@+@+@+.:.+@!@:+@+@+@+@#  @ @ "};
