/* XPM */
static char * zelda_firetemple_symbol_xpm[] = {
/* columns rows colors chars-per-pixel */
"128 128 30 1",
" 	c #272714",
".	c #271414",
"+	c #4E3B27",
"@	c #4E2727",
"#	c #3B2714",
"$	c #3B2727",
"%	c #623B27",
"&	c #3B1414",
"*	c #4E2714",
"=	c #4E3B14",
"-	c #3B1427",
";	c #3B3B27",
">	c #271427",
",	c #622727",
"'	c #623B3B",
")	c #624E27",
"!	c #624E3B",
"~	c #3B3B14",
"{	c #763B3B",
"]	c #764E3B",
"^	c #4E3B3B",
"/	c #764E4E",
"(	c #624E4E",
"_	c #76623B",
":	c #76624E",
"<	c #763B27",
"[	c #764E27",
"}	c #4E4E27",
"|	c #272727",
"1	c #141400",
" .. ..+@+#$#@#$#$%+%%%%@%%%+%$++#$#$##@ & & #@##############$#@+#+#$##$#$#$*$#@+@##@@=######$* ##.##.#$*$*$*#$*#$&#$#.###$##.@# ",
"#.#.& .@#@++#+#%%+%%+%+%+%+%%%+@%#+##+@# @# @ @#$@ -#$$$@$@$##$#@#@#@$@*@#+@=@;*#$## #>#-#$$#$&$&# & ##@#$#$$##$& #$& &$$*$###$#",
".#. .& +#++,++%+%@%'%')')'%%+%%@+@#@$#+++#.##+#$#@@+#@*@####@@++@++#+*# ##@+@#@+##$#$####$*#### #$&#&$#$*$#@#$@# &$*$# @* @. $#&",
"$##&. .@+$*+,+@%+++%!+++'!+'+!%%*$%++%+%%+%#-#$#+#+#@++#$#$#$#*++$*$#$+@#$##++*+@$#+@@@#$#@#$#$&+@ $ ##~@#~@#+*$# # #.##$###@#$#",
"#.$ .#.#%*@+++%+@+@++,+%+%+%+@+!+@+%%$%%+%'%#$#@+++#$##$#@#$%+$**$*$##$#+#+$+@++++@++++@@#$#@#$#++%&#-#$#@#@+$@=$@#&#$#@$@$##$##",
"$####@+%#;@=@@+@+%!{!!%%]+%%+%+@+*+@+@@'%'%'$#@#$*$*$*$)%$)%%%%$@;%%'*@#@$*@*$*$*$*#*+@+++##$#+$%%+++++&#+@+*#+@+*$$ @.## *$.& &",
"#$*& +#$@+@+@=@+%+!%%%%+%%%+]%+]!!+@=+++++++*+@+*@$*;@#@$*@++@+%)%%%%+%%+%++++@%%%+@+#@=@+@+%%$%#%%%%+#$##$#+$*+@+@=@###.#$*# & ",
"&$ ;@#*$*+*++++%%%'+%^%'%^%/!/]]+]!+++@++'%++]!]+++@$=@+]!]!+@++@+++%!%'%%+@+%%%$+%%++@+*@#@+%%%%+$'%'%%$@#@#+#$###+++@$#&# .#.$",
"#@*@+#$=/]/+@+%%++%%%%!!!]!]]!](]!{!]'%+%%+%/]/]!+]!]!]!/+%+%+++%+++%+++%%%%%%+%%+@+%++@;+@=@%')+@!+++@;*;@+#@@=$@$%+#+#@ $$#.#.",
"+@+#$*$+/+]+%+%'%'++++%%%+%](]!]]]!]!]+%++%+%/_]'%]!]!]/_]/]+]{]'%%%+%%%'+%+%++++++%@+@%@=@+@+!@+%+%@+++@+%*$++%%%%$%%+#+@#&$#.#",
"###$#@*]+%%%++%)')%%%+%+%+%+]]!]!]!{!!+@]!%^%!/!'%(%%/%%/]:%'%+!!%++%+'%%%'+%+%%%+@++@=+@+@+)+%%%+]'){%%+%+')%%%+%+%+%+%$###@ @#",
"#$#+*$+/%)/+%%'%%+'%'%+%''+%+!]/%^]!]+,++%++%]]:]!]]!!]!/_/]_%]{!'{'+%%'+%%+%'%+@%+,+++@+++)'{+!'%+]!)!{+'++@++'%%%%+%@+%+$###.#",
"#@$*$+=/+%%%+%%%++%++%%+%'%+%+%!!]'+@++@%@+%+%+%%%'!]+%%_/]+/%)!{!!+'%%)%'%'%%'++%%%%%+++@+']+%%]%+'{!@+%%%++%%%+++%@++%$@#@###$",
"#++#!@]!%/%+%+!%@+%+%'++%%%+''@%%%+]+,+%+%++]+%!+!!%'+%++++%%'%%!%%%%+'%')%%!%%%%%+%+%,+<%%{){!{!+]%++%+%+'<%%!%%'%+++@++*+#$$#@",
"#$*$]#!/!%+%+%%%+%%%%++++++%+%!%+%'+++++%+@%+%+{!'%+!'%+%%%++%+!%!%!%%%%%'%%%+'%'%%%%+++!'!!]%+%+%@!@<%%+++++++%+@+@%@++*+$#$##$",
"$#$#']!%'%%%%'+%%%%'%%@%%@%%+%%'+%%%@%%%%+'%%'%++%!%%%+%%++%+%%{%%%%%++%+%)+'%)%%%+'%+%%%)%<+'!']%!%)%+%%+@+@+@%%++@+=@*@@++@#@#",
"@+*$]!%%%+++%%+%'%+%+%+%%%+%++%+%+%+%%%'%%%)'%%++%%%!+%+%@'%%+'+%'++++%'+%'%%%+%'+%%%'++@%+!'+=+@+%%'%%+%@+%+@+%+%@=@@;@~+@*#$+#",
"##$#'!+%']!%'%%%+)'%+'+%^%++%@%+%%+%'+%%%%+%%)'%%%)'%%%'%+%+'%%%+%%+,+%%%'%%'%'%%+'%++%')'+')%@+%++%%+'%+++@%%%%@%+++@+#@++$@###",
"$*$*!]+%+!{+%++%%'%+%%%%%%+@+%+%%'%%)%%'++'%%'%+++%%!%'+++%%%%)'%%+%+%%!%%)%+%%%++%%%@++%%%+@++@+@%%%%++@+*+++%+%+%+%+*+#@=@+#$@",
"$#@#+']%!]++++++%+%%')%^%%++%++%+%%%%'%+++%')%+@+@+%%%+%%%%%'%+++%%'%+%+%+%+%)%'%+%+%%%@+++++@%%%++%++%%+@+@%%%%%+@+*;@$@#$#@###",
"#+#@@!+%]'+@+%@%%%%+++%%%+%@%%'%'%+%+++%+%+%+%%%++%')+%%')')%%+%+%+%'%'+%++%+%+++%'++++%+@%@+++%@+@++++%+%++++%+%%%++@#=$*@#$#$$",
"#@#;*!]+]+%++@++^%'%+%%++++%'%<!<+%'%%%+,+%%+%%+%%%%%%+%+%%'%+@+@+'[)'[%%'%+'++%%+%@+@+@++@+=@+@++++%%'%%@+@+%%%^%+@%+$@+#;#$###",
"$#@*+']!{+{=@+%@%+%+%%+%%%%%%+!%%!%%%+@%+++%+%^+%%'%'+++%%%%%%+++%%'%%%!%%%+%%%'%+%%+%++@+%%%+@++@+,%%%%!+*%+%+%%%+@+*@#@#+@+#$#",
"#+$)@]']!%!+@+%%%%+%++%+@++'%%<%{%%+++%++%++'%%+%+%}%%%%%')+'%%%%'%)')'%%%%%%%+%%%+++@+%%%%%%+%+*%++%'+%%+++@+%@+++@+@~@~@$*#$#@",
"@#@#+!]!{+%+++@%+%'%%+%+%%%%!%!%+%%+,+%@%@%%%%%%'+%%%^%'+%%%+%%'%)%{ & %'%'%%'%%'+@%+%++%%+%+%%++@++++%'%+@+%%++@+@=++++++++@#$=",
"@#+$*@]%%+%%%%++'%%++'@%+'%%%%%'%++++,++++%%%+')%%+^%%%%%%+'%% . ... . +%  %+%%%%@++%%%++++'%++@++%+%+%+%++@++%@+%+@+@%%@*@*$*+@",
"$=@*+++%!]++%+%%%+%%%['%%%!%'){)+@+,+++,+%%')'%+%+#%+    . . .. . . .. & .#%|#'%)%%%+%%+%+%++@+%@%+@++%++%++@+%++%@%%+@++@+++$#+",
"=$@;@+%!%+%%'%%+%%)'%'%+!%%%%+%%,++%@%%++%'%%)%%'%++%...... .. $...## .. & . .  %%+%%^%%+%%%+%@++@+%%+@+%%%*++%@%+%++%+@=@+%+=@#",
"@*+*+!%'%++%%)'%!%+++%%%%')'%')'++@%++@+%++++'%|%+. . . . .. .#. .##$#. . #.@+. .+%+%%++@++%+++%%%%%%%+%++@++@%++%+%+%++@++%+@++",
"@+$%@%+%+%')'%%++%+%%)%')%%%)%%%%%++@+%%%%%%%%%% .+@@$+@ .. .. .##$#$#$#.#.##$ &. .+%+%%%%%+@+@+%)%')'%'%%%+@%+@+%++@%+%%++%+%@+",
"#@)'++%+%+%%%!%%%%'+%%%%%'%'%'%%!%+*++%%'+%'%'+#.+* #+..+@+@ .. ...#$ .# $ .#$ . . & %+'+%+++%%++%')%%)%%'+++*+@+%%%+@+++@%@++*+",
"+#*$[@+%+%'!%%)'%+%%%'%!%%)%%%+%@+%%%%+%+%%+%#%. @ .. .# . .%. .  $+.# $@#@$.#$& ... - %%%%@+@+@+%%%+'%'%%+%++@=++@%++@%%%+++@++",
"#$$%!%%+%+%%+%'%)'+%!+%+%%+'+%+%+%%%'%%%+'%%'%+#. . %%% #### #%+%@# #@ & $~@  . .   @  #+%++@++%+++%%%++%++%%++@+%++@%++++,%+*$*",
"+#@%%'+%+{+++%+'%%%%%+%%+'%%%+%%+++%%+++%%')%%$+%+%%+%%'%'+%%+%++#+@ & # ###@#+.#..*$@ &|%+%%%%%+@+'%++%%%+%+%++@+@++@+,+%++%$++",
"#+#!'+%+%%+%@%%+%!%+++%%%%%!%%++,+%+%%+%%%%%'%%%%+%%%';%%%%'%%+%$+#++#.#.|.#$@#+$@~$# & # #++%+%@+++++%+++@+%@+@+++@=+%+%+%+###$",
"@+$#)@+%+!%++%++++%%%%%'%+'%%%@%+%+%+%+%+'+%)%'%%'%%+%+%)'%%++@@@%%%+%+- ##$+#+$* $@#$$#$+-#%+%+*+@%%%+%+@+@++%=@%*+@+@+@%@%+@@#",
"#@#$%++''%@++%%%%+%'+%+%++%++%++@+,++%'%%%%'%%++@+%+%+@%'%%+++%+%++@+%%%%. +@+#+$=$~### @++. %++%@+%+%+%+@++@++%+++@%+=@+++%+#$#",
"@+##'@%)%%++%%+@+%%%%+%+%%%%'%@%+%+%+%++%!+%%+%+++++%+%+%)%'%%%%%@+@%%+%+%%+=+@;& *$#$-#+@++..%+%+@%+%@+@+@=@+@+@+@++@+@++%+%$#$",
"@##$)%''++@%%+++%%'++++'%!%++%++@%+%'%%%++%+++%@%%@%%+%+'%+%%'+%+++@+@+@%$%+$#@ @$$#@;# @=@+ ++%+%++%^+@+=@+++@%+*+*+@%=+%+@++##",
"#$##''!%+%+%%%@%'%%++{+[%%+,+%%%+%%%%%%+%@+%+,++%+%%'+%+%%%'%+%%%++%++++)%@%+#+#$# # $#+@;@+.&.+%%+%%%+++@++@+=@++@++%+%+@%#%@##",
"##$#!%)'%+%%^+%%+++%+%%'%'++%%'%%'%!%+++++%%++%+%+++%%+%++%}%')^%+%@+@@+%+%$@++. . .#@##@+*+  #.'+%'+%+@+@%@=%@+@+@+@%+%+++@++#@",
"$@#')'!%+'++++%+++%+%+]%]%%@+%+++%+@+@+%,+@+@+@+%@%@+%++%%'%%%%%+@%%*++@%+++%%+&# &#$$ $~+@+.@. %+%+%%@++%++@%@++%*+%+@%%@@@%+#@",
"*+##'['){%+%%%++%%%%@+%)%+%++@+@+%+++%+++%+%%+%%%%%%%+%@%^+++%++@++++@+%++@+++%+ & .#$##$##@+ # & %'++%+%+%+++++@++@+%++%+=$#+@+",
"@#$#!%!%!%+%%'%%%'+%+%%{'%+%%%+%+@+%@%%+%%+'%+%%+'+%'@+%%%%%%%@%*++@+*+%%@++@%+%+#># *$##$# & &$#|%+%++@+%+%%+%%%%%%+%%%+@@+@%++",
"+#$*'!<!%+@+%%+'%)%+%+%)%+++%%+@++%%++@%'+%%+@%++++++%%'+%+%^++%+@+*@+@+%+%+++@%++#.#|@$##$#$ $$#& %%+@+%+@%@+%%+%+%%+%+@+*$#+@@",
"$#$#+%!']'+%!%%%%'+%+%%'%@%@+++%*++@+%%%%++%+%%++@+%%%+%%%%%+%%++@*+++%%%++%+@+@%%. & ##$#$# &# # #++%@%+%+%+++%%'%+%%%+%+@=$%++",
"#%$<!{)]%+%%%+%'%%%%+%+%%%++@+@++@++%%+'%%%'%%+@@++%+%'%+'+%+%+%+@;*@++%+@%%%+++@+%$ #$$#$#$#$##>#$#+++%@%%+%+%%+%%'+%^%+%+$*+@#",
"$+*;*!'!%+'%++++)%'%%'%+)%@++%%@++%%%+%++'%%%+%+=@%@+%+%%%%%%%@+%+%++@%++%+%%%+@+@++#.## ###$#$$#.+-+%%++@+%@++%'+%+%%%+@+@%+%#+",
"#%$@!['[++%%@%%%%%+%'%%+'%++@++%%%%+%'+%%%)'++@%+++%%%%!+%+'+%%+@%@+%%+%%+%%+%+%%++%.#$$$$$####$##+##++%+%+%%%+%+%%%+%+%++*+%$##",
"$+#=@'!'+@+++%'%')'%)%%%%%@%@%%%%%+%+%%%!%+%+%+++@%++%+%%++%%++@+++%%%++++%+%+%%+%%$% @*###$$$$# & #$%%%+%+%+%%+@+%+'%+%%@;@+#$@",
"#%$@++%%++%%+%%+%%%+'%'%%!%%%+%%^+%%')%'%%%+%+@%*++%%+%%++@+%+@++@++%++,%'%'%+'%%%+%+. $$#$# #$@#|#$#$++@%%^%+@++@+++@+%+%%+*$#@",
"@+%*+%'%+%%+++%%%!%%%%)+%+%}%%%%%+'+%'%)%+$%%#++%+%%%@++@+%+%%++=++%++%'%+%+%+%'%%%+% .+#$#$#$=$####$#+%%+@+@++@+=@@++@+%%+@$##+",
"++$@)')''++%@)')+%+'%+'%%'%%$+'}%%%)%%%'%%+#+%%%+%%+'%+@%++%+%+@%%%%+%+%%%+%++%+%+%%+%.. #$##@@+#$$#$#$%$+++@+@+%++=@++%++%#@+@+",
"@+#@+%!%+%%+%+%+'++++++++%+$##%%'%%%'+%+#+@+%+%+%+%%++@++%%%%%@+'%'+%+%+++'%+%+%+%'%%+. @#$#$=$+@$##$#+%%@=@%++*+@@@+%+%+@@+#++@",
"++%#+'%!%%+@+%+%+%+++%@%%+%+++%+%+%|%%+%++++@%+'%%+%%%++%+%+'%++*%%++%++%%%%++%%%++++%+. ##.+$+*+#$#$#$%++@%+%@;@~+++%@+@=;*$+@=",
"#@+@@)'+%+%%+%+%%@%%@%+++%+%%%++ % . %++@+@%%$%@+'%+%++%+%%%++@+%!%@%+%%++%%+,+++@%%%%+#.. #$*@;@+$##$#+%@++%++*+@@%@+++%+@@@*+@",
"#++#+@%%+++%+@%%+%++%+%%%+%%+++@++.. . @+%++%+@%%++%++%%%++%+@=@++@+%+@+%%'%+%%%%%++%+%.. $.# +@=##@+#$+%++%+%@++++++@%@++*;+*++",
" &%$*+'++%@%++%'%+%@+%+%^%%^%%++...#. & @+,++@++%%+%,+%%@+@%+++@+%+%+@+%'%+%+'+%'+%%'%+% .#.#$#$$#+$$##++%@++@+*@%%=@++++%@+*$+@",
".#+#@++%@+'%%+%%%%++++@%%%+@+%@. . #.. ++++@*+++%+%%++++%%+%@+@%+%@%+%%%%%%+%%+%+%%+@+%.. $ .#$=$#$=$#$#%++@=@+@++%+%+@+@+%@+*##",
"##$#+*+%+%+%%+'++++%%%+%+%%+%%%..1$## ..@@+~@+@%@%++%+,++@+++*+%++++%+%+%+%+'%++%+%++$+% .* @#@ @#+.###++%+@+@=++++@+%%+%%++%++#",
"@+%$*!+']+%++%++%+%'%%%'+++%+'+ +.#|.. #++%@%+*+%++@++++@+@+@+@+@%@%%%'%++'%%%'%+@+@%%++@+$#$;#@;$@$#@$#@%@=+++%%@@+%+%+%+@*++,#",
"++%#+{+%'++@+%%@+'%%%'+%+++'%%%+...# ..*+@#++@+%%@+%+%@%++%@+*+%%+%+%+++%%%%%%+%%+++@+%%+# *$*$####+ @ #%+;@%@+@+=+@+%%+%%+@%++#",
"++@@!!]+%'++@%%%+%%!++%%+,+%)%+%+.... .+@++%%++%%%%%+@++@+%+@+@++%+%%%%@%'+%'++%%+@+*%+.@ . $ # & $.##@++%+++%%+@@%%++%+%+@;+&#@",
"#%@#]'!'%!%@+@!%%'%%%%+%+++%'%%+.   . .=@#@++%+%++%+%++@+@+@=@=@+%+%+++%%+%%++@++++@;%+#@#.#$*$$$# # @+#@+@+%++%+%+@+%@+@+@*+$#@",
"@#+@!]']+%%%+=@%)%!%++%%+@@%%%+%+@+@ @+++@+#%%%+%++@+%%%%++++++@%+@+%@+%'%%++@+@@+*+%+%. .#.  #* #- $@#$+%%@++,+@+%++%@+*++#+#. ",
"#+#@=']!%+'%+@+%'%+%@+%%+%+%'+%%+%+%%++@+++&++%@+%%++@+@+@+@+@++%%%%@+%+%++@+@+=@+%%%%+ & $ $& . @+@#+##%+$*%++%+=@++@+@;*$@@###",
"+%@+@!]'%++%++@+%%+%++%+@%%+##|#+%+%+%+%+%&+%$%++%+@%+%=@=%@+%@++++++%%+@+++@=%%%+%++%+& $##. &$@+#++@+$+#%++,++@@+*@=$+@+*++@#.",
"+$#$*]%%+%+%%@+%!%%++%'%%+%%%+%+%+%+%+%%%+#+%#+@%@%+%+@++%+%+%++%%%+%++@+%+@+@++%+%@+%+.#.##.#$ +@+#####+$@@++%@+=@+@+@+*+;@+#+@",
"#%+*!!+]]+@%+%+%%+'+@++%+'%+$#%%+%+%%+%+%%+%+%%+++@+*++%%+%+%+%%++%%%+%++@%+*%%%@+%+@+% . $. #@+#+#$@$#@+%=@++@=@+@+=@=++%%#$@@~",
"+$#@!{%+'++%+%%%%%%%+%%%%+%%+%^%%+%@+@+%%+%%+%+@%++@+@+@+@%+%@%++%'%@+@+@+%++%++%+%+$%+.#&$ #.++#@+$##$+#+@++%+@++++@;@%%++@##+@",
"@%#+%!){[+++++'}+%%%+%++%%'%%%%@+%@+++%%^%+'%+%++@++%+%+%++%%+%%+%++%+%+%%%%%+%%+%@+%+.# $#&$+@#$++#+@#+@@++%+%+%+%++%++%+%#$#@#",
"+#$#{!{!@+@%+%%%+++%+%'%+%)%%+@+%%++,+%%%%%%%%%%%+@+@++%+@%+@++%%%@+%%%+@++%%+%+%++%@+ & & ;@###+@@####+++*@+@%+@%+@%+%%+%+@#+@#",
"#$*$)%!%++%%%+%%+%+%%+%%'+'++%%+@+@+++@+%'+++++++%+=%+%@+++%+%%^%+%%%+%%%%%%+@%+%++++%#|#$*$##|@$=;&|#$+%@++*++%++%++%+%+,+@#+#@",
"##$*'['%@+%++%^%+%+%+'%%%+%%'%%+++++@+%++%+@%+%@+@%+@+@++@%%%+%++%%+%%'%%%'%+%++@@%%++.#@#$+$##+++& #.%+#@=@+@+%+%%+@%@+%+%+#+@#",
"#$#$!')++%%%@%%%++%'%%}'%%%%+%+%%@%@%+%%%++++@%+%%+%%+@%%%+'++%%@+%'+%++++%%+@%@+$*+@## $+*;@## @@ @.+%+@+@+*++,+%+@=@+@@+$#@@##",
"$#%#')'%+'%++%+++%++%+%%%+%!%%'%%+%+%%%%+%%%+%%%%++%+%%+%+%%%+@++%++%%+%+%+%++++*++++. @=$@+#$@@++.. %+@+*+@+@%+%+@+@++%+%*$##$$",
"##%$+%!'+@%+%+%%@+@+++%')+%+%+%+%++@%+%^%%%%+%'%++@++%+%%'+%+%+@+%+%+++@+++%+@+@;+@%##-;@=$#$#+~@. ..+%++%+@+++%+@+=+++@+$###@#*",
"#$+@='!%++%+%%++++%+%@+%@+%%'+%%+,++%'%%+%+%%+%+%@+%%++%+%+%%++%@+%%%%+%+%@+%+@=@%+@ @;*#$++$#@@ .. +%+%@++=@%%%%%@%+@+*+*$$#+$#",
"#@%#@!%'+@%+@+@@+@+%@++++%+'%%+'%%+@%%+%%+'+%%%+%%%%+@%%+%+'+@++%%++%+@+@%%+@++@++++..#$#@#+##;#$ ..+%+%++@++@+%+%+%+@+@@+##@###",
"#++@=@++++%++@++*+@+++@%+'%++%%+%+%%+%%%+%%+%+'%%+++%++%+'%+%%%%+%@+@+%++++%+@+*+%@. .#$+#+@+$@+* .+%+%+%%%@+%%+'%++%+*++*$#@#$#",
"@+%$+@=@+@%+@+=%+@=%@%+%++%+%%+%+%%+'%++'%++%%+%++@%%+%+%+%+%+%+%++%+@+@%@++@=@++++&.+ @*;@~@#+#$+.++%+%+%+%%+%%+%%%+%+@#+#$#$#$",
"+++%+%@%+++@++@+@++@+%@+%%@++'+%%+^%%+%+++%+@+++%++%%@+%@+@%+%+%%+@+@+++%%%@+++%+&+ . @+$#@@;*$ #.#%+,+%%++%+%+%'+%^%%++%$%$##$#",
"@+%%@+%+@+++@=@+@+@+%+++%%%+%%%'%+++%%%%@+@++%@%@%%+++%++++@++%++++%+,=@%%++@%%+. @+@ #.# + @$##.#++%+%+%@%%'+%%+%%+%+%@$*++#$#&",
"++%+++%++,+%%%@=@=%%%+%@++'%++%%%+@+@+++%%++@+%++++%+@%@+%@++%+%@%@+%+%%%%%+*++.#@+* &;@###$## #$#%+%+@%++%+%++'%%^%%+@++@+@##*$",
"+,+%@%+@+++@%+++@+%+%+%%+@+++%+'%%+%%+@%%+@+@+@++@%+%++%+%+@+@+%+++%%+%+%+%$%+%+$#+###@;@ @##$& +++%+%+@+%%'%%+%++%+%@+*$=++#@$*",
"++%++%@++,++)%%+%%%%+%%+%%%%@%++'%%+%%+%@+*+*+++%+%+%+@+%+@++@+%+@%+%%%%%'%%%+..#@$#$#+#+@;@$ $+%%%+@@++%+%+++%%+++%+%++%$%@+@##",
"@*+@#+%%+++%%'%%%^++%+@@+%++++%+%%'++%+@%%+%++,++%+%@++@%++%@++@%%%+%+'+%+%+#.# @~#$#+@+$*$=@##+$+%@++@++%+%%@+@%@%%+%+%+*$+#@$ ",
"@+$%+@%+%@+%%+)%%++%%@++@+%@+@++'%++%'%%%+++@++@%+@@+%%++%++%@+%%+%%+%%%+%%++# .+@$#+@;@=$+$ #$#@++@+*+%%+%+++@+++@+%+%++@##@=@#",
"+*+@*+++%+%%'%%^+%+++++%#+++@+%+%%%%%%+%+%+,+*@=@@++@+@+%@+++%%+%%+%+%+%++ .@.#@+#+@+@=@;@*+$$%+@@*++@+@+%+%%@+@+@+@+%@+@#@++@#$",
"#$*+$+%@%+%+)%%%%+@%%%+@+@%+*++@++'%'%%+$#++++++++++=@+@+%+@%%+%%+'%%'%+#># @+$ +@+;@;@###;##+%+*+++%+%+%+%++@++@=++@+%+@+#@#+@#",
"++@#+@%%%%'%'+%%%++%+%%@+%%+@%+@=@+%%+%+$%@+@++,+%@@+@+=+%+@+%%%^%%+%+ #.#.@;*+#@+*++*+$@$#$@%+%+@+%%%+%+@%%++*+%@+*+@@=$*$+####",
"*+#$%+%}'%%%%+%^%%+@+@++%++@++@++@++'%%%%+++*%@++++++++@+%+%%%+%% %$ ##> . ;*$@ *;@+@+ ###$%++%+%+%@+%@+@+++%%+@++@+@~@++++@$#$#",
"+@%$%%%%%}'%++%%%+%++++@+@+=%@%+*%%++%+%+%@+#.+%@+&+%+@%++%+%^% ## #.@ .#@$*;@;@+@# #@#$$#%$*@+%+%+%+++@+%@%+%+%@+++@+@=@#####&$",
"@#+=$%++'%%%++%+%%%+@+*+%++@++%%+%+%%%'%%%%++&++++++@++@+.. %. |. @@;@#$$ =$#*$=$# & ##++%+*;+@%+%+%%%+@+%+%%+%++%%=+@=$@@++#$##",
"#%$@#%%%%%^%%+'%++%%%%++@+,++@%%+%+%++%;@++%+ ....=. & .+. .. &.#$$##$####$$#;*$#$# $#+%%++@@@+@%+'+%@++%@%+@++@%++%@+@=$#+#$#$#",
"@+%#+'+++%+'%++%+%+%+%%+%%=@++%%+%+%++@%+%%+%%%%.++..+@.=@@ .@  #$*$=$#$$##$=@$ # #.#+'++@#++#+++%%+++%@+++%@+@%+%%++*;@=@+@##&#",
"$++@*%%%++++%%%%'+@++@%+%%+++@+%%%%@+@+@++@%+%+++@.  *$#$##. #.@$=$####$#$@#$###.$.$%+%%%++@%+%+++%%%@++%%%%+@=++%@@+@+@$++@#@$#",
"**%;$)'%++%+%++++%++@++%+%%@%+%'%++++%%+%+%+@+%%#+%..  @+@;@. +#+$#$$$$### =$#$@+ #+$++@%+%++%+%@%++@+%%+%+@++@@%+$%+%~@=,+++@##",
"$$#*@%+%%+@%%+@%@+@@%%+%%%+++%%%++@+@%+%%%+%%%+%+%+++@#. . . @+@+#+####$#$#$#####,+%%%%++@%+@+@++@@+%+@+%+++@%++@%*++@@+#$#@#$#$",
"$*+$;%%%+%%+%%%+%@=++@+@^%%%%%%'%%%@++%@++%++%%+%+%+,+#+ ##+%+####+#$$##$#& #@++++%+@+@+%+%%+*+%++%%+%++@+@@+%++%$+#@+*++@*++@##",
"+#$*@%!%'++%++++%+@++%+%%%%')%++%%++@+@+%+%@@+@%+@@#+#$#&$+%++++$$#$##$#++$#++%+%%@%+++%%%+%+%@+%+%+%%@+*+=+@+@+%+*@;+++@#$####$",
"@+*;#%%++%%%%%%%%+%@%+%%+%+%%+++'%%%++++%%%%+%@+%+@+@%%+%+%@%+@%+%$%'%%+%+%+%@+@%$@++@+@+^%%++$%+@%%+%+++@+@++=%$@+=@*@%++*@@#$#",
"@=$*%%+@++%^%+%++@%+%+@+%%'%'+%+%%+@+@+@%++%+@+@+@=+@+%%%%$%+@@$*$=$=$+$%+%@@+@$++=+%+%+%%+%+@=@@++%%+%%+%%%+%@@=++@$+#$*$#+@#&@",
"@#$$++@+%+%%++@+@+%+%+%%+%+)%%+%%%+++*+%+%@+@+=@++@++%%^+%+++%++++@+@+@+@+@++;*+*@@%+%+%+%+%+@@@~@%+'%+%%+@+@%+@+@@;*$*+#@#+$# #",
"+#@*+@+@+@++%++@++%+@%+%%++@+%%%++@%@+%+%+%+++@+*%++@%++%%+@+%+@+@+@++++@+@=+@+@;+%+%$@@@+@%%+=$%$++@+%++@+%+++*+++*+%$#@;#@##$#",
"@+#$#+*+@=@+@%+%+%+%+%+++%@+%%+@+@++%+%+%++@%+@++%@+++++++%+%+%+@+=+@%%=++@%+%+*+%+%+@#+#+@++@+@=@%%+%+%@+=@+@+%++%+%+*;@#+@$#.#",
"@+#@*++@~@+++@++,+++++%@+@+%++++@+%+%+%+@%@#+@=@+++@+@+%%%'%+++%+%@%+%%%@++@++%+%++%@=@@+#++@++@;+%+@++@+@++*+@+@+%++%$%#@@=#$@#",
"~@@~$+#@%+%@++,+++%@%@++@+%%%@%@=@+%+%+@+@+@=@+@%+%@+%@%%%+++@%+@++++%+%++*+%+%++@%+@$@~@+@%+@%+%%+%@+@%=@+@+@+%+@+@%+@~@#;@####",
"@+#@@*+$++@=@*+@+@++++@*+@++%+@+@+@@+@@+*+$=@+#++@+%++%%^%%%%%%%+@++%+%%%%@%+%@+%@++*+~+@+%++%@+%+%++@+%+@+%++%++*++@@#@$+##$#$#",
"#+@#++#+*@+++++#*++,+@++@=+@+@=+@=+%+%+$+*+$+@+@+*++*@+%%%%'%'%+++%@%%+'+%++%+@%++%%++@@%+%+%+=@+@%+%+*+@+%+@*+@+@+%;*++=*@$##&#",
"@+#@#@$@;*+%@@@+@+@=++*+$++%+@+@+@++%++*+@+*+*+*+%++@;@+++;%+%++@%+++++%%%+@+@+%+@+@+%+%+%@+@+@+@+%++%++@=+@=@+*+*+@%+++@++#$#$#",
"@#$#@~@=@@++=$=$*+%+@%++@%%+@=+@=@+%#@+%$*++$+@+++@@#@=@++%%+%+@++%+@%%++@+@++%+%%@=@@%+%@+%+%%+=@+@%+@@+@@+@++++@++*@@++*@##$##",
"@=$#$*$+#+%@@+@#+@+@+*+@%+@+@++@;++@+*$#@;@*+@++@*;*++$@+@@+@+@=+@+%++%%@+*+*+@%+%++%+@+@+@+%@+%@+*+@+*+*;*+@++@+*+++@~@*$+#$#$#",
"@#+$#+#@+%+@+#+@+*++++%+@++%+@*+%@+%#$*$#*;@=$=@*+@+$@~@#+*;*++@+%@+%++@++@++@+%++@%+*+@=+%+%+%++@%+++%+@+++*+@+@+@+*+++@#+@$###",
"##&++#++%++*;@+#@++*+@+++*%@+*;@+*+@$*+#@+%@+@+++++*+%+%$+@++@*++++%@+%@+*+@=+++%+%+@+%+@++@%%+@+++%+%++%@@#+@=++++%+@*@~@+#@#-#",
" $@##+,+@@@+*;*@+*+@@+*@%+;*;@++*++*#$#$#+++=$*+%+@+@+%+*%++*+@+@%+@%+%++@+++@@@+%+++@+@++%@;%+%+%+%+@%++=$+*+@+,+*+%$+$@#@@+*@#",
"#@#$@#++*;+%+@++$++++++++@@+#%*+@+@+$*+#$*+%$+@@*@+%+%+%$+@%+++@++%+++@+@=%%@=+*+@@=%+@=@%++*+%+%@%@+%+%@@+#@+*++@+@@++++++=@$# ",
"#$#@##@+$,++@#+*++@*%+,+%+$*$+@++@++$#$*$++@*+*;++@%+%+%+%+++@++%++*@%@+%+%++@++%++@%+++@%++@@%++%++++@+%;*@;@+@+@%++++@=@#@$##@",
"#@##@+*++*+@+@+#@++@++++@+*$#+#+@#*@*$#$#%+@+@+%++=@+%+%++,+%*+*+,+%++%+%+%+@+@@++%++@*@++%*$=+@%++*@+%+@+@~@*++%++@%*%++###*$#$",
".#$*;@#@##++@+#@+@=+@+@%++*++*+$*+#$~@+*$++*;*+@%+@+%%+@@@+@+@++@+%++@+%%+%@+@=+%+@@+%+++%++@++%+*@@+@+*$*+@~@+*+@+%++@+@+@+$#.#",
" &#$*+$#@+@+##@#*$*@+=+@+@+@#$##$#@#@#+#$+*+@$+++%+@$%@~+*+++++*+++@%*+++%++@*@@#@=$*+%+%@+%+%++%$=$+++@=$+@@+++@%#*++++%##@* #.",
".. #$$*+*@####$#$#$#@*++**##$#$#$#++@+@$*@+++%+%@*$*+++@+++%+*+@*@+++++%%+%@++;#+$#@+@#@$*@++@@+@@+@*+@*;@*$=$*%+++$$*@##$##$@#@",
" & &#*;$$~@#-#@+@+#@#$*$#$+##$####@*#$=#$#%@%+@++++*+@#@*$%#@$%+$+%@*+%$$*++*@*+@#@~$*;*$++*+#+++++++@++*+$=$++#@#*+@+@#$##$*$#$",
". .# @#*@#.## #*$*+##@+@++$@##@@@@+ @+@@+@++#+#%+,+++$*+++@+@#++*++#$@$*#@+@+++++=$*$*$@#%+@+%@%@+*@*+#+$+@+$*@@#$#+*#+@##@*$###",
".&$#$# # &# &$# @#@#@##+@*#+@#+#;#.## ##@##&######$###$#+@++##@+#+@*$*+$++#*+@+#@#$+@~+#@#@#+####+#+$#@##*##+#$++@@@+@#@@#$$* .@",
" .#.&.&|&# -# &###$$#$##=@+*@###@##$ &#@ ##$$&$$#$##$#+#@=@##$##+@+=$#+*#*$#$##@#$=@#$*$#+#@+$@$+@@*+@+@+@+@+@=@*@=$##*+#$##$#& ",
". ##$ ##$#& #$#.$# #$*@$@$*;@ @$#$##& .##.###$*##@@@@@@#$#+#$@#$#+#$@#+@+$#@#@#$#@@+@#@#+$*$#*###@+$@#*+@#+#@+@++*+@# $#@#@#.#.#",
"..$## &$#$#$#$###.& @. *;*;@##$*###$#$#.##>##$#$#$######+@@##@###@$#+#++@##$#+$#@##@=@+$@#@#+$$$*;*+=@+@++###=+@#+$#$&##$##$.#.#"};
