/* XPM */
static char * zelda_north_south_xpm[] = {
/* columns rows colors chars-per-pixel */
"128 128 39 1",
" 	c #000000",
".	c #140000",
"+	c #001400",
"@	c #000014",
"#	c #141400",
"$	c #140014",
"%	c #141414",
"&	c #001414",
"*	c #271414",
"=	c #271400",
"-	c #142714",
";	c #272714",
">	c #272700",
",	c #142700",
"'	c #272727",
")	c #271427",
"!	c #3B2714",
"~	c #3B2727",
"{	c #3B1414",
"]	c #3B1427",
"^	c #3B3B27",
"/	c #3B3B14",
"(	c #4E2714",
"_	c #4E3B14",
":	c #4E2727",
"<	c #4E3B27",
"[	c #623B27",
"}	c #624E27",
"|	c #624E3B",
"1	c #623B3B",
"2	c #4E4E27",
"3	c #4E3B3B",
"4	c #4E4E3B",
"5	c #764E27",
"6	c #764E3B",
"7	c #763B27",
"8	c #763B3B",
"9	c #623B14",
"0	c #76623B",
"                                                                                                                                ",
"                                                                                                                                ",
"                                                                                                                                ",
"                                                                                                                                ",
"                                                                                                                                ",
"                                                                                                                                ",
"                                                                                                                                ",
"                                                                                                                                ",
" .  .  . . .. . . . .  .  .  .  .  .  .  .                                                          .           .  .  .  .  .   ",
". +.@# $+ $+ % .&.+$ #@.+$ +$ +$ +$ +$ +. +. #. #. # .+ .+ .+ .+ .+ .+ .+ .+. +. #. #. #. #. # .# .#  # .# .# .#  #  #  # @# .+.",
"+$.+. # #.+.# # # .+..+..+..# .#..+. # $+.@. @ .@ .@. $  $  $  $  .  . @. @. $ .@  $  $  $  $ .@ .@ .@. @. @ .@ .@# % #@.+. &. +",
" .+$# %.$#$%#$.%.%#$#@#$+$+$+$#@+$+$#@#.+.# ##.+#.+# #+.#+.## ## #&.+% #+.## #+ ##.+#.+#.+#.+# ## #+.#+.#+.## ##.+.# .# #.&.# %.",
"##$#+$#+% #.&#+.&#.+%.#+.##.%# ##.## #.%.@#$ $+$.&.$#@.% $#@.&. %. #. #$ % $#@.% $+$.&.$+$ %.$+$ %.$+$.&.$+$ % $+$.%.% %#.#.#..#",
"#@#%.#$#$#%#$#$%#.%%.#%$#% %#$#%.%&.%.% ##&.##.# #.+..# #.# #. #.+.% %. #.#.+.+..+.#.#+.##.#+.#.#.+#.+#.&##.#.##.#+#@##% %&#@%+%",
"%.#.%#%##%.%#%##$##.%#.#$#$#.%#$##.%#$#%.%.%.&.%.%#$#&.#$+.%.+%.+$# ## #$+.+$#.#@#.+%.%#@#%.%#@#%.%.%%.%.%.%+$#$#$%.#$#.%.#$#.%.",
"#%#%#%.%$#%#$#$%#%%#%#%%#%##%#%##%%##%.#%###$#%.&#$#%.%#%.%+%.%#$#%#$#$##$#%.#@##$#%.%#$#$+$#$#%.%#%.#.%##%#$#$#%#.%#%#%##%#%#%#",
"#$%.%#%#%%%%%#%#%%#%%#$##$#%.%#$%.%.%#%#$#$##$##.%##$#.%##$#.%.#%.#$#%#$##$#%.%.%#$##%.#%###%##$##$#%#%#$#.%##%#.%#%.%$#%$#$#.%#",
"%%#%%%#*%=%=#*%=%=$*#%#$%%$#%%%#%%#%%#$#%#%#%##%%#.%#%#%.%##%##$#%#%.#@#.%#%.#%#.%##$##%.#%$#.%#%#%##%.#%#%##%.#%#$##%#%#*%#%%.%",
"#*#*#*%#%#*%%#%%#%#%*%*#%#*%#*#*#*%#%%#%%#%$#$#.#%#%.#%##%.%.%##%.##%##%#%.#%#$#%#$#%%$#%%#%%%#$#%#%$#%%#%%%$#%%#%#%*%=%%#%*#*%#",
"%#*%#%#*%*%=%*=%**%=%##%=%#%=%#%%#*.*#*%=%*#%#%%%#$#%$#%$%%##$#$##%#$#$#$#%#$##%.##%#%#%%.%=%#*%#%*%#*%=%*#*#%*#*%*#%#%%=%=%#%=%",
"%*%=%**%=%*%*%%*#%*%*%*%%=%%%#*%=%%#%%#%#%#%*#%#%%#%#%*#=%#%%#%%%%%#%%###%.%#%.#%%%#*#%=%*#%#*#%*#%#*#%*#%#%*#%%#%#*%=%=%%%*%*%#",
"*#*%*%#*%*#*#*#*%=%*#*%=%*%=%*%*%%=%**#**.*%#%*#*#*#*%#%%#*%=%*#=%#*%=%*%%*#%#%%#%=$%*#%%#%=$%%=%*%*%*#%*%=%#%=%*#*#*%%*%=%=%#*%",
"%*%=%**-=-*-*;%;*%;#*%*%*#*%*#*#*%*%#%*%#*#*#*#%%#%%#*#*#*#%%#%%%#*#%#%#%=%%=%*#*%#%#%*#*%=%=%=%*#*#*%*%=%*%*%*%=%*%%=*%*%**%*%*",
"%=-*%;#*%****%*#;#**-=-=%;%=%*%*#*#**%=%*%%#*%%*=%=%*#%*%%*#*=%=%=%*#*%=%#*#%%#%%#*%=%=%#*%%%*%*%*%*%;#*%*%*#*#*%*%=*%%=-=%>%*,*",
"*;*#;=*;*-*-*>*%**-**%**%=%;%>%*%*%;#*%*#*%*%=*%%*%=%*%=%=%%%%*%*%%#*#%*#*%#*=%=*%=%%=%%*%=*#*#;=-=%=%*-=%=%*%;%=-*%;=*%**-**#**",
"%*%**%%*%;**;%*;%;*-*;*-*-***%*#*-=%*%=-*-*#*%%=%=%%*#**%*#**#*#*#*%*%*%*#%*#%*%#*%=%*%*#*%%;%;*%*%;*;%**;%>%*=-**;%*%-*-**%*;%;",
";*;*-;*;**-**;**;***;%****-*,*;%*=%*%;*%=%*-*=;%*%*#*-*#;%*-=*-*%**#*#*#*%=%*%#*%*%*%=-**-=*%=%*;*;%*%*-*%**%=%**%*=-****-*;*%;*",
"*;%;***;%>*;*;%;%*;-**;-=-****%>%;%;=*#;**%=*%%**>%;%=%*%*=%*%=%*>%;%*%*#%%=%=%*%>%=-*%*#**%;*;%;%**;*;**;%;*-*;%;*-**;%>**-*;**",
"*;*;%;;*;*;*;**;*;**;*;**;*-*-***%**-*%*#;=-*>*,*%*=%*;#;*-*;%;*#**#*-=%;=%;%*;#*%*%*=-*;%;**%;**;*-*%;#;%**%**%;*;**-*;*;*;*;%;",
"*;*;*;**;*;*;%;*;*;*;*-*;%**;**%;*;%*%;*-*%*%*%*%;*-*;%**#*%**%;%;%;=*%**%=*%=%*,*;#;%=*%**#;;**;%;*;**;**>*;#;*;=*%;*;**-*;*;*;",
";*;*;*;;*;*;*;*;*;;;*;*;*;;*%;*;=%*;=;*%**;*;*;*;*%**#*-*;*;=-**;**%;%=-*%*-=;*%**#**-*-*;;*;*;;**;*;*;%;*%;***%*;;*;*;*;*;*;*;*",
";*;*;*;*;*;;;*;*;*;*;*;*;**;;*;*;*;%;%*;*-*-*%;*%;*-*;*;*%;%;**-*%;**;**#*,**%;*;*;%;***;%*;*;**;*;*;*;**;*;*;;;;**;*;*;*;*;*;*;",
";*;;*;*';);*;;*;;*;';*;;*;;**;*;%****;*%>***;**;**;*;%*%*;***;**;*;%*%;%;**-*;%*-**;*;*;*;*;*;*;;*;;*;*;*;*;*;***;;*;*;;*;;*;;*;",
";';*;);;*;;);*';*'*;*;*;*;*;;;*;*;;-*;*;**;%;*,*;%>*;*;*;**;-*;*>**;*;=*%;#****;**;%**-*;*;*;*;;*;*;*;*;*;*;*;*;*;*;*;;*;;*;;);;",
";*;';;*;;*;;*;*;;*!;~*';*;*;**;*;**;*;%*;%;**;*;*;***;*,*;;**;*-*;%;*%*;=*;*;,**;%;*;;*;*;;*;;*;*;;*;;*;*;*;*;*;*;;*;*'*;);*;;{'",
"~;{;{;~*!'!*~;!'{;'*;!*!;;;*;;*;;*;*;*;*;*;=-**;*;*;;*;*;*;*;*;*;*;**;**-*%;**;;*;=*;**;*;*;*'*;'*;'*;*;*;*;;*;;*;*;';*;!;!;~*;;",
";*';;!;;'{;;*!);;*!;~;';)*';*;;*;*;*;*;*;*;*;*;*;*;**;*;*;*;;*;*;*;*-*;**;*;*;**;*;;*;;*;*;';*;*!;~*;;'*;;*;*;*;;*;*!*~*;];);;{~",
"~;!*~*~*!'{;~;;{;!);*!*!;!*!;{'!;;*;;*;;*;*;*;*;*;*;;*;*;;*;*;;*;*;*;*;%;*;*;*;;*;**;*;*;';{;!;!'*!;*!*;;);*';*'*;'*';;!;;!;!);;",
";!)!;!;!;*;~;!'!';!;~;~;~;';';*;);*;*;*;;*;*;*;*;*;*;*;*;*;;*;*;*;*;*;*;*;*;*;*;;*;*;*;;*;{;'{'*!'!;~;;*;*;;*;;*!;{;!*~*~*'{;;!~",
"~;!';~;)!'!;)!*!;{;)!*;~*!*!*!~;!;;*;;;*;*;;*;*;*;*;;*;*;;*;~*';*;*;*;*;*;*;*;*;*;;*;;*;~;;{;;!'!*~*;*~*;;];;];!);;);'!;;;!;'{';",
"!*;!*!;!;!*!;!';~;~;!'!!;~;~;'{;];*~;*';*;);*;;*;*;*;*';);'{;;*;;*;;*;*;*;*;*;;);;*';*'!*;~;~*!;;!;~;!;;];;;{;;;!;!!!*!'{~;~;!;~",
"'!'!'!~'!'!'!'!~!*!'!;!'!'!;!!;!;~;*;!*!~;;*;;*;*;;*;;*!;{;;*;{;*;;*;;*;;*;*;;*!;);;{;!*;~*!;~;~!'!*~;];;!*~;;*~*!);~;~;!;;!;];!",
"!~;~!'!!'!'!~;!;'!'!;~~;!;~!'!'!'!;!'*;;*!*~;*;;'{';*';*;;!)!';'{;*;*;;*;;*;*;;'{;!*';)!;;!'!;~;~;!;!;!;];;*!'!;;'!;!'{'!~!'!;~~",
"~;!;!~!~!!!;!~;~!~!;~!!'!~;~!~!~!;~*!;~!);;;;];**;;*;{;!;];;!;{;;;~*~;{;*;*;;~*!;*'!;!!'!)!'!'!!*!~;'!)!;;!'!;!)!*!;~!;!~;;~;~;!",
"~!~!'!~;~'~~!~!!;!~!~;~!~!~!'!~;!'!';~*;!!)!*;;;!;{'!'!)!;;~*'!;];*;;*;*!;~*!*;~;!;*~;;!'!!!~!~~!'!~;!'!'{'!*~;!;~;~!'!~;!~!!~!~",
"~!'!!~!~!!!!~!'!~~;!~!~;!~!~!~!~!~!!{;!~*'!;;!*;*~;!;{;;!;];!;~;;{;!;{';*;*!;'!*!'!~;{~!!'!'!;!!'!~*!'!!'!!;!;{'!;~;~!~!!~;!'!;~",
"~!!~;!~!~~~!;!~!;!~~!~!~~!~!~!~!'!'!'!;!;!*~*~*;!*;*~;~;~;;!)!*!;;~*;;*;;];;{;!;;{;!!'!'!!~!~!~!!!;~!!;~!;];~;!;~!*!!~!~;~!~!~!~",
"~!'!~~!~!!!~~;~!~~!!~!~!!~!~!~~!~!!~!~!'!'!;;;!)!'!~;!;!;!];;!';];!;~*!;{;;!'!'!'!~!'!~!!~!;!~!~'~~!'!~;~;!!'!~!!'!~~;!~!;~!'!~!",
"^!!~!!~^~~~!!~!~!!~^!~!~~/~/~!~!~!'!;~;!!;~;]!;;!;;;{'!~;;;!~;!;!'{;!;);!;];!*!;~;~;!~!~~;~!~!'!!!;!~;!!~!'!!'!'!!'!~~~!~!~!!~!^",
"~!~!~!~!/~/~!~!~!~!~!~!^!~!~^~/~^!~!~!~!'!;!;;'!'!];~;!;!]!'*!!];;!'*!;!)!;!'!'!!!~!~!~!!~!~!~!~~!~;!~!~;!!;~!~!;~!!!!!~!~!~!~!~",
"^!~!^!^~~!~!~!~!~/~/~/~!~^~/~!~!~~!~!~;!~!~*~!!;!;!;!;~;~;;!!'!;~!'!;~*;!;~;!;~;~!~!~!~!~!~!~/~!!'!~!;~!~!~!!;!'!~!~~^!~!~!^!~!^",
"~!^!~!~(^/~~/~/~/~!~~~/~^!_~:/~^!^!^!~!~;~;!;!;~!'!~;~!!;!~!'!!~;!;~;!;~;~;!!~!!~;!~!~/~/~!^!~!^!~!!~!~!!!'!~~!~!!~!!~!^!^!~!^!~",
"<~!~^!^!~:!^~!~~!~^(/~:/:~^!^!:/:!~!~!~!!!~;~!~!;{!;!;!)!!;{!'!;!~!!!)!;!!!'!!~;~!~/~^!~~!~!~!~!~!'!;~!'~!~!~!!!~'!^~!~!~~!^~!~<",
"<!^~!<~~_~/~!~^!^:/~<~/~!^(<!<~^!^~^~^!~!'!!'!;~!'!)!~;!~!~'!!~!~!;~;!;!~;~!~;~!~!~!~!~~/~/~/~^!~!~!~!!!!!!~!;~~!^!~!^!^~/~~!^!<",
"<~!<!~/~^!:/~_~_~!^!~_:</:~^:!^(^(<!!~!~!!~!!~!!~!~;!;~;!~;!~;!'!'!~!'!~!~!!~!~!~!^~_~/~!~~!~!~~!~!~!~!~~!'!~!~!~!~/~~!^(~/:/~~<",
"<<~/~^(~_:^~~!^~/:<~_~^!:^<!<~_~:^!<~^!~!~!~!~!~!;!;~!;~;!!~!!~!~!!;~!!!!;~!~!~!^!~/~:^(^^(^!^!/~!~!~!~!~!~!~!~!/~^(~/:~!<~/~<!<",
"<!<~(^~_~^(^(^:!<~!<~<(^:_~<~_~</:^:/~!~!~!~!~!'!~!;{;!!~!~!'!!!;~!~!;~~!~!~!~!~!~_~/!~^(~!^:!~!~!^!!~/~!^!~/~/~~!~^!<!^!~/:~/~<",
"<^~(^(^:/:~/~<!<:^<~_:^:^<:_<:^:~<(^(^!~/~;~!~!~!!~;~!~;!'!!~!~!~!~!!~!;~!~!^!^!^:!^:~<!~_~!^!^~/~!~^!~!~!~!~!~/~_~(^!~(^(^:^(~<",
"<(<^(^:/:^_:/:^:/:_<^<(^<:^<~_<!<^:^:~/~~!^!~/~!~~!;!;!~!!~!~!'!~!~!~!~!~!~!~:!^(^~_~/!^:^~<!~(~!~!!!~!~/~!^!^:!:^!<~^~^~^(/~<!<",
"<<!<~_:<:<:^:/:/:<~<(^<:<<_<<<~<<(<_~_~!/!~!~!~!!!~!~!~;!;!~!~!~!~!~!~!~!^!^~/^:~/:^(^:~/:/!:^!^!^!^~!^!~!^!:~!^~_~~_~(_~(^:_~<<",
"<<<~<<^_~_^(<<<<^(<~<<<<<~<<<<<:^<~<~<!~~~/~/~/~!~!;~!!~~!~!~!~!~!~!~!~!~!~(^(~/:<~_~<!/:!<~/~(^:!~!~!~/~/~!^_~_~^(^!<~^(^:^<^(<",
"<:<<:_:<~<:^<~<:<<<_<:^:<<<<<(<<:_<<!<~_~_~(~!~^!~!~!!~!!~!/~!^!^!^!~!^~/<~<!~<!<!<~<!^:!^~~_~^!~/~<!^!~^!~<!:^:_:!<~!<!<~<(<:<<",
"[<^_<^<_<<<<(<<_^:<:<<<_<<<:<<<^<^:/<~/~^~!^~_~!~!~!~;!~!~!~!~!~!~!~!^(~~!^(^(^:^:_~_~:/<:_~~/:~/:!^~(^(~<!^:/:^<~<~_~^(~_<^</<<",
"<<<<:<<~<:_<<<<<<<^<_<<<<<<<<<<<<:<<:<~(^(^:!~/~/~/~!~!~!~!<!^!<!^!~/~!^(^(^~<~<!<~<<~_~~/~_^(^!<~^~(^~!^!:!<~_<(<(<~_:^<~_:<:<[",
"[<<<<<<<<<<<:<:<<<(<<<:<<<<<<:<<(<<~_~_~_~_~/<~_~!~!^!~/~/~!^(~^(~!~(^:/:^(^(^(<<(<<!<~_:~_~:^(~!<!_~_:^(^!<!<<~<^<~_:^(<<<<<<<<",
"<<<<<<<<<~<<<<<<<<<<<<<<<<<<<<<<<<<<<<<<~<~_~:/~~!^!!^!!~!~_~~_~~/:/~:/:^(^:_~<(^<~<<!<!</:</:/~^(^~~^!<!<~<<~<<<:<<<^:<~<<<<<<}",
"|<<:<<:_<<<<<<<<<<<<<<<<<<<<<<<<<<(^(^(^(^:^(^(~/:!<~!~^!^!~/:~_~^!~/:^(^:^(^<<^:_<_~<<~<:/~:<~_:~_:_:^(~_:/<_<!<_^:/<_^_<:<<<<[",
"[<<<<<<<<:_<<<<<<<<<[<<<<[<<<<<<<<<<<<:<<<(<~<~/:~/~!<!!(~/:!^_~_~_~<!<!<!<<:^(<^:^:<^(</<:_<!<!^_~^!^(^<~<:<:<<<<<<<:<:<<<<<<<1",
"}<<<<<<<<<<<<<<<<<<<<[<[<<<<[<<:<<<<:<<<~</:/(^(^!:/:!~^~/~/:!:^:_~_~<!<:/:/<(<<:_<<<(<^:<!^:<!<:<!<:<~_:_^<<<<:<<(<<<<<<<<<[<<<",
"[<[<[<[<<:<<<[<[<[<[<<[<<<[<<<<<<<<_<<<<<<:^:<!<~/:^~^(^(~(~<^_^(^:^(^:</:<<:^<<<^:_:^<:<_:<_^:<!<!<!<_~<<_<:_<_<<<<<<<<<<[<<<<}",
"|<<<<<<<<<<[<<<<[<<<<[<<[<<<[<<<[<:<<<_<<_<_<^:^(^(^(~^(^!^_~(~<<:/:^(<^:<_~_<(<:_<<<<_</:^<~_<!<<:^<:^<_:<<<<<<<<<<<[<<<[<<[<<[",
"[[<[[<[<<<<<<<[<<<[<[<<[<<[<<[<<<<<<<<<<<<<^:<_~<:~_~_!<~_~:^:^(</:/:</:_~<<<^<<<<<:<<<:<<<_<~<<:<!<!<_:<<<<<<<<<<[<[<[<[<<[<<<[",
"|<[<2[<<[<[<<[<<[[<[<<[<[<<<<<<<[<[<<<<<<<:<(<~<_^(^:^:_~<!_<!<<~<:<<!<<^<_<:<<:_:^_<<<<<:_:<<(^_<<:<<:<<<(<<<<<[<<[<<<[<[<<[<<|",
"}<}<[<[<<<<<[<<[<<[2[<[<<<[<[<[<<[<<[<[<[<<<<<<_~_<~_:/:<!<~_:^(</<!<<:<(<:<<_<<<<<<<<<<<<^<<<<<<~_^(^_<<<<<<<<<<<[<[}[<}<[}<[<[",
"|[<[}<[<[[<[<[[<[2[<[2[<[<<<<<<[<<[<<<[<<<<(<<:<:<<_~<<!<:<<~<_:<<<<<!</<<_<<<<<<<(<<:<<<<(<<(<<(<<:<<<<<<<<<[<[<[[2[<<[<[2[<}<}",
"}[}<[2[}<<[<}[2[<[<[<[<<<[<[<[[<<[<<[<[<[<<<<<</<<~<<_<<^<!<_:<<<<<(<<<:<~<<:<<:<<<<<<<<<<<<<<<<<<<<_<<:<<<[<<<[<<}[<}[}[|[<[<[1",
"|<[1}[<[[}<[[<[2[<}<[2[<}<[<[<<[[<[<<[<[<<<<<<<:<<_<:<:<(<:<<<<<(<<<^:_<_<<<<<<<<<<<<<[<<<<<<<<<<:_<<:<<<<[<<[<[<[[3[[|[|[}[2[<|",
"|[[2[3}12[[2[|[[4[<[<[<[<[<<2[<<2[2[<}<}[<<<<:<<<<<<<<<<<<^_~<_^<<<<<<^:<<(<:<_<<<<<<<<<<[<(<<:<<<<<<<_<<<<[<[<[21}}1}<|[[21[|[}",
"|[}1}[[<}1}[[}[}[<}<[}<[2[<[<<[<[<[[<[[[<[<<<<<<_<:<<_<:<<_<<<<:<<<(<<_<<<<<_<<[<<<[<_<[<<[<<[<<<<<<_<<[<[<[<[2[[[[<}[|[}1}[<[[|",
"|[[}[|}|[}<[|<}1<[[<[<}<[<[<<[<<<[<}<}12[<<[_<<[<<_<<<<_<<:<<_<<<<<<_<:<(<_<<<<<<[_<<<<_<<<<<<<<<<<<<<<<<<[2[}<[<}|}1}[|}[}1}}[}",
"5[|[}[[[}1}}[}[}}12[3[1[2[<<[<<[[<}1[}[[<[<<<[<<<[<<[<<<[<<<<:<<[<<<<<<<<<:<<<<[<<<[<[:<[<[<[[<<[<[<<[<[<[<[<[}1}1[}[[|[}1}[}3}|",
"||[}1}|}1}[1}1}1}[[2[2[4[<<[<<[<<}<[2[212[<[<<[<[<<[<[<[<[<<<<<[<<[<<<<<<_<<<[<<[<<<<<<<<<<[<<<[<[<<<[<<[<[<}<[2[}}}||}}|}|}1}[6",
"6}[|[}1}}1}}[}[}1}3[}[[[<}<[<[<[[[1}[|[[[<[<<[<<[<[<<[<<[<<[<[<<[[<<[[<<:<<<<<<[<<<[<<<<[<[<[<[<<<<<[<[<}<}<1[|[|[1}1}[|[}1}[|[|",
"|[}[|[}}1}[[|1}|[}}[<}<}[<[<<}<<<}<}[<[}<}<<[<<[<[<<[2[<<[<<<<[<<<<[<<[<<<<<[<<<<[<<<<[<<<<[<2[<[<[<<[<[[<[<[}[[[}}}7|}8}6}|}[}6",
"6}|[}[|[|[|<}}[|[|[<|[1<<[<<[<[<[<[[|[|<[[<<[<[<<<[<[<[<[<[<[[<<[[<<[<<<<<<<<<[<<<<<[<<_<<<<<[<[_<<[<<[2[<}[2[}3}1|7|}[|}[}8}1}|",
"|[}[}|[}[}}[}1}|}[|[[2[}<[<[<<<[<<}<[}<[<}<[<[<<[<}<<[<[<<<<<<<<<[<[<<[<<<<[<<<<<<_:<_<<<_<[<<<<<<<<<[<[}<[<[1[[}}}|}[6}6}1}|}[6",
"6}1|[}|[|[|[|[}[|[}[}[[<[<[<[<<}<[[[4[[2[[<[<2<<<[<[<}<}<[[<[<<[<[<<[<[_<<<_<[_<(<<<<:<<:<<<<<[<[<<[<<[}<[|[2[2[1}151}}1}15}[|}6",
"6}[}|[[}[|[}}[|}|[}3[}12[<2<<<<<[<<}[[<[}12[<<[<<[<<[<[<[<<[<[<<<[<}<[<<<[<<<<<<<<<_<<<_<<<_[<<[<<<<<[<1}[<[[[1}}[|}6}15}}1}|[}6",
"6}1}1}|[}[|[|}151}[[2[<[<[<[<<[<<[<[<}1<[<[<[<<<[<}<[2[[2[<<<<<[<<[<<<[<<<<[<<<:<<:<:_<<<(<<<<<<[<_[<[2[<}}12[}[|[}1}1}|[6}15|[6",
"61}|[}[|}1}[}7|}}|[|[|[}<<[<<<<[<<[<[<}|[}<[<[<[<<[<[<[<[<[<[[<<[2[<[[<<<[<<:<<<_<<_<<<:<:<<<<[<[<<<[<<}[1<[[}1}1}1}}}5[|[|}[|}6",
"6}}[|[}[}[|[|}151}[}[[<[<[<<[<<<[<<[2[[[2[<}<<<[<}<[2[2[2[<<<<<[<[<[<<[<<<<_<<(<<:<:<(<<_<_:<<<<<<<[<[[[2[}}3[}[}1}[1|[|5}[6}5|6",
"61}1}1}|1}[}1}|[}[|[|<|[}<[<<<<<<<<<[2[}1[<[<[<<[<[<[<1[<[}<[<[<<<[<[<<[<<<<<<<<<_<<_<<:/:<<<_[<<[<<[<2[[}<[[}1[|}[|}}[|[6[|[|56",
"6}}[|[|[}}1}5|7}|[}[}[[<[<<<<<<[<<[<[[1[2[}<[<[[2[<}[<}[<}<[<<[<[2<<2[<<<_<:<_<<<<<:<!<_:^_<<<<<<<<[<<[[|[[|<}}[}1}[[|[}|}|}6}|6",
"6|[|[}}[}1}|[|}1}|[|[|}[2[<[<[<<<<<[<2[}[<[<[2<[<}<[<[<}<[[<<[2<[<[<[<<<[<<<<<:_<:<_^:_~<_:<(<<[<<[[<[2[<12[[1}1}[}1}[|}[|7}[6}6",
"6}}|[|1}1}}15}15|[|[}[1<[<<<<<_<[<<<[<[|[}<}<[<[<[[2[2[<[}<[<<[<<[<[<<[<<<<<(<<<<<<<:/:<(<<<<<_<<[<<}<[<}[[}[}[}1}1[[}1}[|}|[6}6",
"6}151}}1}}8}}1}}7|}}1}}[|[[<[<<<<<<[<[<}[<[[[<[2[}<[<[[3[<}<[<<[<[<<<<<[<<<<<<<<:<_<<:/:/:<:<<<[<<2[<<[<[}}3}1}|}[[}}[}[|}[6}|56",
"6}}|}[|[|[|}8}|[|}1}[|[[<[<<<<<[<<<<[<}12[4[<[<[[[<[[2[2[<[[<<[<2[<[<[<_<[<(<<_<_<<<_:<_:<_<<<:<<[<[<[2[<1[[}[}[}12[1[|}[|[|7}66",
"6}1}8}}[}6[|}15}15}1}[}|<}<[<[<<<<[<[<[[[<[}<}<<<|[2[3[<[[<}<[<<[<<<<<[<<<<<<<:<<:<:<_^:/<<<(<_<<<[<[<[<[}[21}1}1}[[2[}1}[|}}|5|",
"6}1}}1}6}}}5|}1}}1}[|[|[[[<[<<<[<<[<<[}4[}[<[<[}[[<[|[}[2<[<[<<[<[<[<<<<<<:<<_<<<<_<:^(<<:_<<<<<[<<[<}<<[}[|[[}}[}1}[}1}[|[6[|[6",
"6|}6[}1}1|[|[6}[6}|[}[}[}<}<<[<[<<<<[<[[[1<}<[<<[2[}[2[<[[<[2[<<[<<[<_<[<<_<<:<<_<<<_<<<!<<<:_<<<<<[<<<[<1<}[}1}1}[4[[[|[}}[}6}6",
"6}[}|[}6[5|}}[|}|[}1}1}1<[[[<<<<[<[<<}<}[}[3[<[<[[|<[1}<|<}<[<[<<}<<<<<<<<<[<<<<<:<<:<(<<:_<<<<<[<<[<[<2[}[}[[}1}}1}[|}[}1}|[|}6",
"6}6[6}1}}1}7|6}15}1}[}[<}1}<[<<[<<[<[<[[12[}<}<[<}[}[2[<[<[[<[<<[<<[<<[<<:<<<_<<<<<_<<<<_<<:_:_<<<<}<[<[<[}1[4[}[|[}[}[}1}[}6[}6",
"6}1}}15|}|}|5}[}|[}1}12[[2[}<[<<[<<[2[2[}[1<[<<[21[<1[[2[<}<[<}<<<[<<<<<_<[<[<<[<_:<<<<<:<_<<<<<[<[<<<}<[<}[}[<[}[|[|[|[}|[|[|}6",
"6|}[|}1}[6[6[||7|}|[}[[|[[4[[<[<<[2[<[[|[<}[[2[<[[}[}<}[[<1}<[<[<<<[<_:<<<<<<<<<<<<<<(<<_~<(<<<_<<<<[<<[<[1}<1}[1}|}[}[|}[}[}|[6",
"6}6}7|}6}}6}6}[}|[[}1}<[2[[}<}<[<[<[2[<[}12<[<[<}<1}<|[<2[<[<<<[<_<<<<<<<[<[<[<<<<<<<<<<<<<<<:<<<[<[<<<[<}<[}[<}[}[|[|}[1}1|7}16",
"6[|[|}[}[|51}6}1}[|[[}1<[|<|[[<<[<}<[<}<[<[[[}<[<[}[[[<[[<}<[<[<<<[<<:_<(<<<<<<<<[<_<<<<:<_<<_<<<<<<[<<<[<[}3}[3}[|}[}1}[}}[}|}6",
"6}5|516}|5|5|}1}[|}[21[2[[}[<}[}<}[<[[[}<}[2<<[2[}3}3}[2<[<<<[<<<<<<<<<<<<<[<[<:<<<[<<<_<<<:<<<:<<[<<<[<[21[[[}[[|[}1}[|}1}1}[}6",
"6}6[|}}[6}8}}8}}1}[|[[}<[}1}[1<[[[<[2<}3[[<[[[<[<[[}[[<[[<[<[<<[<<<<(<<:<<_<<[<<[<<<<[<<<<_<_<[<<<<<[<<<<[[2[}3[<[|[}1}}[}[}[|}6",
"6}|5|516}|}6}}[1}[|[}|[[|[}1<}}121}<[1[<}<|[2<[|[2[<32[<<[<<<<[<<<[<<<_<<<:<<<<<<[<<<<<<<:<<:<<<_<[<<<<<[<}[3[[}[}[|}[}1}1}1}1}6",
"615|7|5|[51}8|}[|}[|}[2[<1}[}1<[}[<[}<}[[<[<[[<[<[<}[[<}[<<[<<<<<<<_<<<:_<<[<[<[<[<<<[<[<<<<_<<<<<<[<<[<<<[}[2[2[1}[|[|[}}1}}[}6",
"6}6}6}15|6}6}[|[}[}[|[|[}[}[|}}1[}[<[}1<}<[2[2[|<[<[<<[<<[<<<[<<_<:<:_:<<<_<<<<<[<[<[<<[<<<:<<(<<_<<<<<<[[<[<[<[}[}|[}[|[|[}1}16",
"6[5|5|5|5|7|}|[}[|}1}[}<[}1}[1[}[[4[|<}[<[<[<1[<[<}<[<[<[<[<<<<<<<<_<<<_:<<<[<[<[<[<<<[<<<<<_<<<<:<<<_<<<<}1}<[|[|[[|}1}}[}1}[}6",
"6}|565|56}|515}1}1}[}1}1}12[}}}|[2[[<[[2[2[<[2[}<[<[<}<<<[<<_<:_<:_:<!<<<_<<<<<[<<<[<<<[<:[<<:<<_<<:<<<[<[<[<[<[2[}}[}[|[|[}[|[6",
"615|6|5|}651}}1}1}}1}|}[}[}1}1}[|[1<}[}3[<[<<[}[<[<<<<[<[<<<<_<<<<<^<<:_<:<<[<[<[<[<<[_<[<<<<<_<<<<_<[<<<[<}[<2[[}1[|1}}1}|[|[}6",
"6}6}65|56[|5|[}|[|[|[[1}1|[}1}[|[}[}1<}[<}<[2[<<[<<[[<<[2<<<:<<<_:_:_<<<<_<<<[<[<[<[<<<<<<[<<<<:<<<<<<<[<<[<<[[[4[}|[}[|[}[|[}[6",
"6}}65|5|5|51}61}}}6}}|}[}}}|}[|[}[4[<}1<[[<[<[12[<[2<<[<<<<<_<<<:<<^<!<(<:<_<<[<}<<<[<[<[<<<<[<_<<(<:<<<<[<}[<2<[[[[}1}[}[|}}1}6",
"6}6}6516}6}|5}}8}1}1}1}1|[|7|}[}1}[}[<[2[2[<[2[<[<<<[[<[<<<<:<_<<(<(<:<<<<<<[<[<[<[<<<<<<9<<<<<:<<<<_<[<<<[<<[<[}12}1}}1}|[[|[}|",
"6|[|5|5|5|[6[|6}|5|5}7|}}51}}1}1}[}1[|<[[[<}<[<[<<[<<<<[<<<<_<<:<^<<!</<_<_<<2[<[<<<[<[<[<<<[<<_<<(<<<<<<[<[<[<[<}[[}[|[}[}|}[}6",
"6}6}6|65|5|5|7}8}|7|[|}8}1}|[}[}1}1}<[[2<|<[<}<}<<<<<[<<<[<(<<:_<(<~_:<:<:<<[[<}<[<[<<<<<<[<<<<<<<<<(<[<[<<<[<}<[[|[|}[|[|6[}1}|",
"6[15|5|5|5|5|}|}6}|5|}[}|}15}|[|}[}}<}<[[<[<[<[<[[<<<<<[<<<<<<_<:<_<:_~_<_<<<<[<[<[<<_<[[_<<<<<(<<(<<<<<<<[}<<<<}<[[}1}[}[}}1}[6",
"6}}|565|5|56[656515|[6}6[}5|[1}[}1}1[<[2[<}[4[[<<<<<<<<<<<(<<:<_^<:^_~<<:<<<<[<}<[<<[<[<<<<<[<<<<<<<_<<<[<<<[[[<[[}1}}1}|615}[|}",
"|1515|}66[6}6}15|5|56}15|6[|}}[}1}[}[}<[2[<[<[<}[<<[<<<<_<<<(</:<(<_:<(<_<<<[<[<}<<[<<<<[<<<<<<(<<(<:<_<<<[<<<<[<<}[|[}[}[|}1}[6",
"6}}|516}|566|56}65|5|5}|5[|51}|1}[|<1<[<[<[}<[<<<[<<_<<:<<:<</:_~<<^_~<~<(<<<[<[<[<<[<[<<<<[<<<<<<<<<<<<[<<<<<[2[[|[}1}|[|5[|[|}",
"6[6[|5}65||56}|5|66|5|67|}6}|}[}1}[[}3}[<[<<[<[[<<<<:<<_<<<_:<~<:_:_:<(_<<<<[<[2[<}[<<<[<[<_<<<_:_<:_<<<<[<<<<<[<<}1}[}[}}1}1}[6",
"6}}|5|7|}656665665656}}6}8}|7|}|}[2[<[<<[<[}<<<<<[<<<_:<<(^</:__~_<</:^:_<<<<[<[<[<<<[<<<<<<[<<<<<<<<:[_<<<<<[<<[<}[}1}1}1}}|[}|",
"51515|}8}6|656|56}6|666}6}15}6[}[|[3}<[}<[<<[}[<[<_<<<<<<<(<:_~<_~<:^:_<<(<<[2[<}<}[<<<<<<<<<:<<(<<<_<<<<<[_<<<[<[}1}}1}[}[|[|[6",
"6}|}|5|}6}65|656|6656}6}6}|}|[|}|[}[<[<[3<[<[<<[<<<<<<:_:/<~_^:<~_<_(</:<<<[<[<<[<[<<[<<[<[<<_<<<<(<<<<<<_<<<<<<[<}[|[}[|[|5[}[|",
"65|56656566060606060666666666666}[|[}}1}}[}[}[}<[[<[<[<<<<<<<<<_<<<<<<<<<<<[<[}[}[}[[}[[<[<[[<[[<[[<[[[[<[[<[[}[}[||5|6|5|5|6||6"};
